<svg viewBox="0 0 156 182" fill="none" xmlns="http://www.w3.org/2000/svg"><g clip-path="url(#clip0)"><path opacity="0.3" fill-rule="evenodd" clip-rule="evenodd" d="M21.0562 173.478H135.629C137.994 173.478 139.853 175.338 139.853 177.706C139.853 180.073 137.994 181.934 135.629 181.934H21.0562C18.6904 181.934 16.8315 180.073 16.8315 177.706C16.8315 175.338 18.8594 173.478 21.0562 173.478Z" fill="#AFAFAF"/><path fill-rule="evenodd" clip-rule="evenodd" d="M35.5891 166.375C35.5891 162.485 38.7998 159.271 42.6865 159.271H53.6706C57.5573 159.271 60.768 162.485 60.768 166.375C60.768 170.264 57.5573 173.478 53.6706 173.478H42.6865C38.7998 173.478 35.5891 170.264 35.5891 166.375Z" fill="#F49000"/><path fill-rule="evenodd" clip-rule="evenodd" d="M95.748 166.375C95.748 162.485 98.9588 159.271 102.845 159.271H113.83C117.716 159.271 120.927 162.485 120.927 166.375C120.927 170.264 117.716 173.478 113.83 173.478H102.845C98.7898 173.478 95.748 170.264 95.748 166.375Z" fill="#F49000"/><path fill-rule="evenodd" clip-rule="evenodd" d="M127.517 118.513C130.559 118.513 133.094 121.05 133.094 124.094V144.051C133.094 147.095 130.559 149.632 127.517 149.632C124.475 149.632 121.941 147.095 121.941 144.051V124.094C121.941 121.05 124.475 118.513 127.517 118.513Z" fill="#43C000"/><path fill-rule="evenodd" clip-rule="evenodd" d="M128.869 142.359V83.1667L150.837 102.447C156.414 107.351 157.09 115.976 152.02 121.726C151.682 122.234 151.175 122.572 150.837 122.91L128.869 142.359Z" fill="#43C000"/><path fill-rule="evenodd" clip-rule="evenodd" d="M28.3226 118.513C31.3644 118.513 33.8992 121.05 33.8992 124.094V144.051C33.8992 147.095 31.3644 149.632 28.3226 149.632C25.2809 149.632 22.7461 147.095 22.7461 144.051V124.094C22.9151 121.05 25.2809 118.513 28.3226 118.513Z" fill="#43C000"/><path fill-rule="evenodd" clip-rule="evenodd" d="M5.1716 122.91C4.66464 122.572 4.32667 122.065 3.9887 121.726C-1.08088 116.145 -0.573919 107.52 5.1716 102.447L27.1398 83.1667V142.359L5.1716 122.91Z" fill="#43C000"/><path fill-rule="evenodd" clip-rule="evenodd" d="M49.1079 41.5627C63.3027 47.4819 72.9349 50.5261 78.1735 50.5261C83.412 50.5261 92.8752 47.6511 106.901 41.7318C116.195 37.842 126.841 42.0701 130.897 51.3717C131.911 53.5703 132.418 56.1071 132.418 58.4748V114.792C132.418 144.727 108.084 169.08 78.1735 169.08C48.263 169.08 23.76 144.896 23.76 114.792V58.4748C23.76 48.3275 31.8713 40.2097 42.0105 40.2097C44.3763 40.2097 46.9111 40.548 49.1079 41.5627Z" fill="#58CC02"/><path d="M73.9489 132.212C74.1179 131.535 73.6109 130.859 72.935 130.859H59.2471C58.5712 130.859 58.0642 131.535 58.2332 132.212C59.2471 135.425 62.4578 137.624 66.0065 137.624C69.7242 137.455 72.935 135.256 73.9489 132.212ZM96.762 130.859H83.0741C82.3982 130.859 81.8912 131.535 82.0602 132.212C83.0741 135.425 86.2848 137.624 89.8335 137.624C93.3822 137.624 96.593 135.425 97.7759 132.212C98.1138 131.535 97.6069 130.859 96.762 130.859ZM84.9329 142.359H71.2451C70.5692 142.359 70.0622 143.036 70.2312 143.712C71.2451 146.925 74.4558 149.124 78.0045 149.124C81.5532 149.124 84.764 146.925 85.9469 143.712C86.1158 143.036 85.6089 142.359 84.9329 142.359Z" fill="#89E219"/><path d="M85.2709 100.586C82.5671 100.586 78.0045 100.586 71.583 100.586C68.5413 107.858 61.2749 112.932 52.8256 112.932H51.1357C39.9827 112.932 30.8574 103.799 30.8574 92.6374V79.6151C30.8574 71.8355 35.2511 65.2398 41.5035 61.6882C41.6725 59.6587 42.3485 57.6293 43.3624 55.7689C44.0383 54.5851 45.5592 54.5851 46.4041 55.4307L49.9528 59.3205C49.9528 59.3205 49.9528 59.3205 50.1218 59.3205C49.9528 56.6146 50.6288 53.9086 51.9807 51.5409C52.6566 50.3571 53.8395 50.3571 54.6844 51.2027L69.8932 67.6075C74.6248 70.9899 81.3842 70.9899 86.1158 67.7766L100.987 51.2027C101.831 50.1879 103.352 50.3571 104.028 51.5409C105.38 53.9086 105.887 56.4454 105.887 58.9823L108.929 55.5998C109.774 54.5851 111.295 54.7542 111.971 55.9381C112.816 57.4602 113.492 59.3205 113.66 61.0117C120.589 64.225 125.321 71.3281 125.321 79.446V92.2992C125.321 103.461 116.195 112.594 105.042 112.594H103.521C95.41 112.594 88.3126 107.689 85.2709 100.586Z" fill="#89E219"/><path fill-rule="evenodd" clip-rule="evenodd" d="M104.197 66.9309C112.478 66.9309 119.068 73.5266 119.068 81.8136V90.777C119.068 99.064 112.478 105.66 104.197 105.66C95.9171 105.66 89.3267 99.064 89.3267 90.777V81.8136C89.3267 73.6958 95.9171 66.9309 104.197 66.9309Z" fill="white"/><path fill-rule="evenodd" clip-rule="evenodd" d="M101.832 75.5562C105.718 75.5562 108.929 78.7695 108.929 82.4901V90.2697C108.929 94.1595 105.718 97.2037 102.001 97.2037C98.1139 97.2037 95.0721 93.9904 95.0721 90.2697V82.4901C94.9032 78.6003 97.9449 75.5562 101.832 75.5562Z" fill="#122431"/><path fill-rule="evenodd" clip-rule="evenodd" d="M51.3048 66.9309C59.5851 66.9309 66.1756 73.5266 66.1756 81.8136V90.777C66.1756 99.064 59.5851 105.66 51.3048 105.66C43.0245 105.66 36.4341 99.064 36.4341 90.777V81.8136C36.4341 73.6958 43.1935 66.9309 51.3048 66.9309Z" fill="white"/><path fill-rule="evenodd" clip-rule="evenodd" d="M53.6707 75.5562C57.5574 75.5562 60.7681 78.7695 60.7681 82.4901V90.2697C60.7681 94.1595 57.5574 97.2037 53.8397 97.2037C49.953 97.2037 46.9113 93.9904 46.9113 90.2697V82.4901C46.7423 78.6003 49.784 75.5562 53.6707 75.5562Z" fill="#122431"/><path d="M121.096 102.785C113.829 104.645 107.408 107.52 101.494 111.579L96.9309 104.814C103.521 100.248 110.957 97.0345 119.068 94.8359L121.096 102.785Z" fill="#89E219"/><path d="M33.7302 102.785L35.7581 95.0051C43.8694 97.0346 51.3047 100.417 57.8952 104.983L53.3326 111.748C47.4181 107.689 40.9966 104.645 33.7302 102.785Z" fill="#89E219"/><path fill-rule="evenodd" clip-rule="evenodd" d="M46.7422 62.7029H50.1219C59.2472 62.7029 66.6825 70.1442 66.6825 79.2768V89.0858L33.3923 75.8944C33.5613 68.6221 39.4758 62.7029 46.7422 62.7029Z" fill="#89E219"/><path d="M31.7024 75.3871L34.5752 69.637C54.3465 79.446 69.0483 84.1814 78.3425 84.1814C87.4677 84.1814 100.48 79.446 117.209 69.637L120.42 75.218C102.676 85.5344 88.8196 90.608 78.1735 90.608C67.6964 90.608 52.3187 85.5344 31.7024 75.3871Z" fill="#89E219"/><path fill-rule="evenodd" clip-rule="evenodd" d="M104.704 62.7029C111.971 62.7029 117.885 68.6221 117.885 75.8944L84.595 89.0858V79.2768C84.595 70.1442 92.0303 62.7029 101.156 62.7029H104.704Z" fill="#89E219"/><path fill-rule="evenodd" clip-rule="evenodd" d="M78.3424 92.1301C83.243 92.1301 87.1297 96.0199 87.1297 100.924C87.1297 105.829 83.243 109.719 78.3424 109.719C73.4418 109.719 69.5552 105.829 69.5552 100.924C69.5552 96.0199 73.6108 92.1301 78.3424 92.1301Z" fill="#F49000"/><path d="M67.5273 100.755C68.3723 95.8508 72.9349 92.1301 78.5114 92.1301C83.412 92.1301 87.9746 95.8508 88.8195 100.755V103.123C87.4677 101.094 85.6088 100.248 83.243 100.755C81.0462 101.263 79.1874 102.785 78.1734 105.322L67.5273 103.123V100.755Z" fill="#FFC200"/><path d="M75.6387 97.0347C74.9627 97.0347 74.4558 96.6965 74.2868 96.02C73.9488 95.1744 74.4558 94.3288 75.1317 93.9905C76.9905 93.314 79.0184 93.314 80.8772 93.9905C81.7221 94.3288 82.0601 95.1744 81.7221 96.02C81.3842 96.8656 80.5392 97.2038 79.6943 96.8656C78.5114 96.3582 77.3285 96.3582 75.9766 96.8656C75.9766 97.0347 75.8076 97.0347 75.6387 97.0347Z" fill="#FFDE00"/><path opacity="0.3" d="M85.7779 11.7975C84.933 7.23119 82.0602 0.635447 79.5255 0.97369C78.6805 0.97369 77.8356 1.8193 77.8356 2.83403C77.8356 11.2901 75.9768 13.8269 73.7799 16.8711C72.597 18.3932 71.4141 20.2535 70.4002 22.7904C68.0344 28.5405 70.9072 33.9524 78.6805 38.6878C79.0185 38.8569 79.1875 39.026 79.5255 39.026C79.8634 39.026 80.2014 38.8569 80.5394 38.6878C81.0463 38.3495 81.3843 37.6731 81.2153 36.9966C80.3704 33.1068 80.0324 29.5552 80.0324 26.8493C80.0324 24.8198 81.3843 22.6212 82.7362 20.5918C84.595 17.7167 86.2849 14.8417 85.7779 11.7975Z" fill="#AFAFAF"/></g><defs><clipPath id="clip0"><rect width="154.96" height="180.96" fill="white" transform="translate(0.439941 0.973633)"/></clipPath></defs></svg>