<svg viewBox="0 0 716 557" fill="none" xmlns="http://www.w3.org/2000/svg"><mask id="mask0" mask-type="alpha" maskUnits="userSpaceOnUse" x="0" y="0" width="716" height="557"><rect width="716" height="557" rx="16" fill="#1CB0F6"/><rect width="716" height="557" rx="16" fill="#50C800"/><rect width="716" height="557" rx="16" fill="#F8FAFB"/></mask><g mask="url(#mask0)"><path d="M718.541 0.735596H0.576538V564.079H718.541V0.735596Z" fill="#C0F1FF"/><path opacity="0.3038" fill-rule="evenodd" clip-rule="evenodd" d="M901.162 607.895L-113.797 595.585C-173.592 369.308 -171.297 258.518 -106.909 263.003C-10.3808 269.784 23.1172 235.358 150.326 236.505C277.535 237.653 285.362 258.622 397.126 259.561C508.891 260.604 508.891 237.131 636.1 238.279C763.309 239.426 862.968 283.972 1011.05 244.225C1109.66 217.832 1073.04 339.055 901.162 607.895Z" fill="#1CB0F6"/><path opacity="0.4899" d="M402.866 425.33C408.341 425.33 412.78 420.893 412.78 415.419C412.78 409.946 408.341 405.509 402.866 405.509C397.391 405.509 392.952 409.946 392.952 415.419C392.952 420.893 397.391 425.33 402.866 425.33Z" fill="white"/><path opacity="0.4899" d="M421.128 386.73C428.044 386.73 433.651 381.126 433.651 374.212C433.651 367.298 428.044 361.693 421.128 361.693C414.212 361.693 408.605 367.298 408.605 374.212C408.605 381.126 414.212 386.73 421.128 386.73Z" fill="white"/><path opacity="0.4899" d="M406.518 333.526C409.976 333.526 412.78 330.723 412.78 327.266C412.78 323.809 409.976 321.007 406.518 321.007C403.06 321.007 400.257 323.809 400.257 327.266C400.257 330.723 403.06 333.526 406.518 333.526Z" fill="white"/><path fill-rule="evenodd" clip-rule="evenodd" d="M547.189 435.971L524.336 429.294C520.161 428.042 515.883 430.442 514.63 434.615C514.109 436.284 514.213 438.057 514.839 439.727L528.718 474.257C529.031 474.988 529.031 475.718 528.927 476.448L522.353 509.727L545.624 588.908C547.502 595.272 553.868 599.341 560.442 598.297L583.922 594.542C591.227 593.394 596.132 586.613 594.984 579.311C594.88 578.789 594.775 578.267 594.671 577.641L556.268 445.047C554.912 440.665 551.572 437.223 547.189 435.971Z" fill="#78C800"/><path fill-rule="evenodd" clip-rule="evenodd" d="M704.766 388.608L744.942 381.097C749.221 380.262 753.291 383.079 754.126 387.356C754.334 388.4 754.334 389.443 754.126 390.486L720.523 542.798C719.062 549.683 712.488 554.169 705.496 553.125L665.215 546.97C657.91 545.823 653.005 539.042 654.049 531.844C654.153 531.218 654.258 530.592 654.466 529.966L694.539 397.997C695.895 393.094 699.861 389.547 704.766 388.608Z" fill="#58A700"/><path fill-rule="evenodd" clip-rule="evenodd" d="M547.085 370.56L565.764 348.235C567.33 346.357 570.147 346.149 572.026 347.714C572.756 348.34 573.278 349.174 573.487 350.113L577.765 367.848C578.183 369.413 578.704 370.873 579.539 372.23L592.271 392.99C596.549 399.979 597.28 408.638 594.149 416.358L588.201 431.068C585.696 437.327 585.696 444.317 588.201 450.576L595.088 467.685C597.593 473.944 597.593 480.934 595.088 487.193L584.861 512.544C584.548 513.483 583.609 514.004 582.67 514.004H552.616C551.363 514.004 550.32 512.961 550.32 511.709C550.32 511.396 550.424 511.083 550.529 510.875L560.025 487.193C562.529 480.934 562.529 473.944 560.025 467.685L553.346 451.098C550.737 444.525 550.842 437.223 553.659 430.755L556.894 423.452C560.129 416.254 559.816 408.012 556.268 401.023L546.041 380.993C544.163 377.446 544.685 373.481 547.085 370.56Z" fill="#58A700"/><path fill-rule="evenodd" clip-rule="evenodd" d="M620.551 367.013L663.963 345.523C666.885 344.062 670.537 345.314 671.998 348.235C672.416 349.07 672.624 350.009 672.624 350.948V501.799C672.624 509.101 666.676 515.152 659.267 515.152H626.395C619.09 515.152 613.038 509.206 613.038 501.799V378.906C613.142 373.899 615.959 369.204 620.551 367.013Z" fill="#58A700"/><path fill-rule="evenodd" clip-rule="evenodd" d="M653.84 333.839L680.242 312.139C682.538 310.262 685.877 310.575 687.756 312.87C688.591 313.913 689.008 315.165 689.008 316.521L688.278 332.482C688.069 336.76 688.799 341.141 690.365 345.105L700.591 371.708C703.409 378.906 703.409 386.939 700.591 394.242L692.347 415.732C689.53 422.93 689.53 430.963 692.347 438.266L700.591 459.756C703.409 466.955 703.409 474.988 700.591 482.29L688.695 513.17C688.278 514.213 687.234 514.943 686.086 514.943H651.753C650.188 514.943 648.936 513.691 648.936 512.126C648.936 511.813 649.04 511.396 649.144 511.083L660.31 482.186C663.128 474.987 663.128 466.955 660.31 459.652L652.066 438.161C649.249 430.963 649.249 422.93 652.066 415.628L660.31 394.137C663.128 386.939 663.128 378.906 660.31 371.603L650.605 346.462C648.727 342.08 650.083 336.968 653.84 333.839Z" fill="#78C800"/><path fill-rule="evenodd" clip-rule="evenodd" d="M585.592 316.104L609.803 292.422C612.203 290.023 616.168 290.023 618.568 292.527C619.716 293.779 620.447 295.448 620.342 297.117L619.612 315.374C619.403 319.651 620.029 323.928 621.386 327.997L632.448 362.006C634.848 369.308 634.848 377.237 632.448 384.54L623.056 413.437C620.655 420.74 620.655 428.668 623.056 435.971L632.448 464.868C634.848 472.171 634.848 480.099 632.448 487.402L620.134 525.271C619.716 526.627 618.464 527.566 617.003 527.566H584.235C582.461 527.566 581 526.106 581 524.228C581 523.915 581.105 523.498 581.209 523.185L592.793 487.298C595.193 479.995 595.193 472.067 592.793 464.764L583.401 435.866C581 428.564 581 420.635 583.401 413.333L592.793 384.435C595.193 377.133 595.193 369.204 592.793 361.902L582.253 329.457C580.687 324.763 582.044 319.546 585.592 316.104Z" fill="#78C800"/><path fill-rule="evenodd" clip-rule="evenodd" d="M71.9555 467.894L47.3277 440.352C44.9275 437.744 40.962 437.536 38.3531 439.831C37.1009 440.874 36.3704 442.439 36.266 444.108L34.805 461.947C34.3876 466.85 33.031 471.545 30.8396 475.927L15.6037 505.867C11.6382 513.691 10.4903 522.663 12.473 531.218L18.63 557.924C20.6127 566.479 19.4648 575.451 15.4993 583.275L3.08106 607.686C-0.884438 615.511 -2.03234 624.482 -0.0495987 633.037L8.61189 670.697C8.92495 672.054 10.0729 673.097 11.5338 673.306L48.3712 677.791C50.2496 678 51.9193 676.748 52.128 674.87C52.128 674.453 52.128 674.036 52.0237 673.723L43.9883 638.462C42.0056 629.907 43.1535 620.935 47.119 613.111L59.5372 588.7C63.5027 580.875 64.6506 571.904 62.6679 563.349L56.5109 536.642C54.5282 528.088 55.6761 519.116 59.6416 511.292L73.9383 483.02C76.4428 478.117 75.6079 472.067 71.9555 467.894Z" fill="#78C800"/><path fill-rule="evenodd" clip-rule="evenodd" d="M94.7049 352.095L66.9464 327.788C64.3375 325.493 60.2676 325.701 57.9718 328.414C56.9283 329.666 56.3021 331.231 56.4065 332.9L57.137 350.843C57.3457 355.746 56.6152 360.65 54.9455 365.24L43.4664 396.85C40.4401 405.091 40.4401 414.167 43.4664 422.409L52.7541 448.072C55.7804 456.314 55.7804 465.39 52.7541 473.631L43.4664 499.399C40.4401 507.641 40.4401 516.717 43.4664 524.958L56.6152 561.263C57.137 562.619 58.3892 563.453 59.7459 563.453H96.792C98.6704 563.453 100.131 561.889 100.131 560.115C100.131 559.698 100.027 559.385 99.9226 558.968L87.6087 524.958C84.5824 516.717 84.5824 507.641 87.6087 499.399L96.8963 473.631C99.9226 465.39 99.9226 456.314 96.8963 448.072L87.6087 422.304C84.5824 414.063 84.5824 404.987 87.6087 396.745L98.4617 366.909C100.444 361.588 98.8791 355.746 94.7049 352.095Z" fill="#58A700"/><path fill-rule="evenodd" clip-rule="evenodd" d="M127.055 334.465L104.097 296.908C102.218 293.883 98.3573 292.944 95.331 294.822C93.3483 295.969 92.2004 298.16 92.3047 300.455L93.0352 325.806C93.1395 330.292 92.5134 334.778 91.0524 339.055L78.7385 375.151C76.0253 382.975 76.0253 391.529 78.7385 399.353L89.0697 429.92C91.7829 437.744 91.7829 446.299 89.0697 454.123L78.7385 484.69C76.0253 492.514 76.0253 501.068 78.7385 508.893L92.4091 548.952C92.8265 550.309 94.1831 551.248 95.6441 551.248H132.795C134.673 551.248 136.134 549.683 136.134 547.909C136.134 547.492 136.03 547.179 135.925 546.866L122.985 508.684C120.272 500.86 120.272 492.305 122.985 484.481L133.316 453.914C136.03 446.09 136.03 437.536 133.316 429.711L122.255 397.267C119.959 390.695 119.646 383.496 121.211 376.715L128.62 344.48C129.455 341.141 128.933 337.49 127.055 334.465Z" fill="#78C800"/><path fill-rule="evenodd" clip-rule="evenodd" d="M215.861 385.844H193.947C189.46 385.844 185.807 389.495 185.807 393.981V399.301C185.807 403.683 188.625 407.647 192.799 409.003L204.382 412.759C212.522 415.471 221.497 413.176 227.445 407.021L230.889 403.474C234.019 400.24 233.915 395.128 230.68 391.999C230.471 391.79 230.262 391.582 230.054 391.477L228.593 390.33C224.94 387.409 220.453 385.844 215.861 385.844Z" fill="#CE82FF"/><path fill-rule="evenodd" clip-rule="evenodd" d="M203.339 377.081H198.121C195.721 377.081 193.738 379.063 193.738 381.462C193.738 383.862 195.721 385.844 198.121 385.844H217.114V385.739C214.609 380.419 209.183 377.081 203.339 377.081Z" fill="#9069CD"/><path fill-rule="evenodd" clip-rule="evenodd" d="M222.227 393.981C220.453 393.981 218.992 395.441 218.992 397.215V399.301C218.992 401.075 220.453 402.535 222.227 402.535C224.001 402.535 225.462 401.075 225.462 399.301V397.215C225.462 395.441 224.001 393.981 222.227 393.981Z" fill="#4B4B4B"/><path fill-rule="evenodd" clip-rule="evenodd" d="M175.893 395.65L168.901 401.284L169.11 401.596C169.841 402.64 170.78 403.474 171.823 404.1C176.206 406.813 182.05 405.561 184.868 401.075C187.581 396.693 186.329 390.851 181.842 388.035C177.459 385.322 171.823 386.574 169.006 390.851L168.693 391.269L175.893 395.65Z" fill="#9069CD" stroke="#9069CD" stroke-width="0.864" stroke-linecap="round" stroke-linejoin="round"/><path fill-rule="evenodd" clip-rule="evenodd" d="M206.052 404.83C205.113 410.151 204.069 413.385 202.713 414.741C200.521 416.932 197.077 416.932 194.886 414.741C192.694 412.55 192.694 409.108 194.886 406.917C196.243 405.561 199.478 404.517 204.8 403.578C205.426 403.474 205.948 403.891 206.052 404.517C206.052 404.622 206.052 404.726 206.052 404.83Z" fill="#9069CD"/><path fill-rule="evenodd" clip-rule="evenodd" d="M155.961 345.105H126.951C121.002 345.105 116.202 349.904 116.202 355.851V362.84C116.202 368.682 119.959 373.794 125.49 375.568L140.83 380.575C151.579 384.122 163.475 381.201 171.302 373.064L175.893 368.369C179.963 364.092 179.859 357.416 175.685 353.243C175.372 352.93 175.058 352.721 174.745 352.512L172.763 350.948C168.067 347.088 162.118 345.105 155.961 345.105Z" fill="#CE82FF"/><path fill-rule="evenodd" clip-rule="evenodd" d="M139.473 333.526H132.586C129.351 333.526 126.846 336.134 126.846 339.263C126.846 342.497 129.455 345.001 132.586 345.001H157.735L157.631 344.897C154.292 338.012 147.196 333.526 139.473 333.526Z" fill="#9069CD"/><path fill-rule="evenodd" clip-rule="evenodd" d="M164.31 355.851C161.91 355.851 160.031 357.729 160.031 360.128V362.84C160.031 365.24 161.91 367.118 164.31 367.118C166.71 367.118 168.589 365.24 168.589 362.84V360.128C168.589 357.729 166.71 355.851 164.31 355.851Z" fill="#4B4B4B"/><path fill-rule="evenodd" clip-rule="evenodd" d="M103.158 358.042L93.8701 365.449L94.1831 365.866C95.1223 367.222 96.3746 368.37 97.7312 369.204C103.575 372.855 111.297 371.082 114.95 365.24C118.602 359.398 116.828 351.678 110.984 348.131C105.245 344.584 97.7312 346.149 93.9744 351.782L93.6614 352.304L103.158 358.042Z" fill="#9069CD" stroke="#9069CD" stroke-width="1.1405" stroke-linecap="round" stroke-linejoin="round"/><path fill-rule="evenodd" clip-rule="evenodd" d="M116.62 380.68L131.438 363.884C133.734 361.275 137.804 360.963 140.413 363.362C141.665 364.51 142.395 366.074 142.604 367.744L143.543 380.471C143.961 386.522 145.839 392.364 149.074 397.58L160.866 416.671C167.754 427.729 168.38 441.604 162.536 453.288L156.17 465.911C151.161 476.031 150.848 487.819 155.544 498.147L164.101 517.134C169.006 527.983 168.484 540.607 162.64 550.935L149.178 574.824C148.552 575.868 147.404 576.598 146.256 576.598H115.785C113.906 576.598 112.445 575.033 112.445 573.26C112.445 572.947 112.55 572.529 112.654 572.216L122.985 541.024C125.49 533.408 125.49 525.167 122.985 517.551L115.576 495.226C112.758 486.672 113.071 477.387 116.515 469.041L124.864 448.907C128.725 439.726 128.725 429.294 124.864 420.114L114.428 394.972C112.341 390.069 113.28 384.644 116.62 380.68Z" fill="#58A700"/><path fill-rule="evenodd" clip-rule="evenodd" d="M95.3265 107.224L89.7125 119.899C87.7862 124.206 82.8438 126.122 78.5359 124.196C77.7193 123.823 76.8628 123.246 76.2113 122.628L66.0705 113.12C54.5241 102.397 37.9442 99.1352 23.1995 104.763L10.2388 109.726C5.89108 111.421 0.991392 109.184 -0.704407 104.837C-1.08852 103.955 -1.26777 103.034 -1.24215 102.072L-1.70016 88.2384C-2.20935 72.5015 -11.7526 58.4135 -26.1671 52.0739L-38.846 46.4598C-43.1539 44.5335 -45.0716 39.592 -43.1453 35.2854C-42.7725 34.469 -42.1949 33.6129 -41.5775 32.9615L-32.1706 22.844C-21.4464 11.3015 -18.1854 -5.27409 -23.8163 -20.0159L-28.7813 -32.974C-30.4771 -37.3209 -28.2406 -42.2192 -23.8929 -43.9141C-23.0109 -44.298 -22.089 -44.4772 -21.1272 -44.4514L-7.29022 -44.9078C8.45032 -45.4152 22.5406 -54.9547 28.8802 -69.3651L34.4942 -82.0404C36.4205 -86.347 41.363 -88.2638 45.6708 -86.3374C46.4874 -85.9647 47.3439 -85.3871 47.9955 -84.7697L58.1362 -75.2616C69.6826 -64.5387 86.2625 -61.2767 101.007 -66.9047L113.968 -71.8671C118.316 -73.5621 123.215 -71.3256 124.911 -66.9787C125.295 -66.0968 125.475 -65.1751 125.449 -64.2136L125.907 -50.3798C126.416 -34.643 135.959 -20.555 150.374 -14.2154L163.053 -8.60133C167.361 -6.67498 169.278 -1.73355 167.352 2.57308C166.979 3.38947 166.402 4.24566 165.784 4.89702L156.275 15.0344C145.551 26.5769 142.29 43.1525 147.921 57.8943L152.886 70.8524C154.581 75.1993 152.345 80.0976 147.997 81.7925C147.115 82.1764 146.193 82.3556 145.231 82.3298L131.394 82.7862C115.776 83.3761 101.788 92.8957 95.3265 107.224Z" fill="#FFBC00"/><path d="M49.3631 -46.8511C12.3082 -39.6519 -11.8899 -3.7834 -4.685 33.2634C2.5199 70.3102 38.3995 94.5065 75.4543 87.3073C112.509 80.1081 136.707 44.2396 129.502 7.1928C122.297 -29.854 86.4179 -54.0503 49.3631 -46.8511Z" fill="#FFD900"/><path fill-rule="evenodd" clip-rule="evenodd" d="M-108.997 477.491C-96.0565 498.147 -65.5848 515.152 -17.5814 528.609C54.3194 548.848 71.538 509.101 237.463 530.487C403.388 551.978 511.708 498.877 616.585 490.845C721.463 482.812 777.293 529.444 868.708 524.854C929.651 521.828 974.211 508.579 1002.39 484.898L976.507 610.92H-108.997V477.491Z" fill="#FFCE8E"/><path fill-rule="evenodd" clip-rule="evenodd" d="M570.982 560.324L556.999 555.212C553.764 554.064 552.094 550.413 553.346 547.179C553.868 545.718 554.911 544.571 556.268 543.841L569.313 536.851C571.295 535.808 572.548 533.826 572.652 531.635L573.278 516.821C573.382 513.378 576.304 510.666 579.748 510.77C581.313 510.875 582.774 511.396 583.818 512.544L594.567 522.767C596.132 524.332 598.428 524.854 600.619 524.228L614.916 520.159C618.255 519.22 621.699 521.203 622.638 524.541C623.056 526.001 622.951 527.566 622.221 528.922L615.751 542.276C614.811 544.258 614.916 546.657 616.168 548.431L624.412 560.741C626.291 563.662 625.56 567.522 622.638 569.4C621.386 570.234 619.821 570.652 618.36 570.443L603.645 568.461C601.454 568.148 599.263 569.087 597.906 570.756L588.723 582.44C586.531 585.152 582.67 585.57 579.957 583.483C578.809 582.544 577.974 581.188 577.661 579.728L575.052 565.122C574.635 562.932 573.069 561.158 570.982 560.324Z" fill="#FF9600"/><path fill-rule="evenodd" clip-rule="evenodd" d="M446.069 503.837C448.887 503.837 451.287 506.132 451.287 509.053V531.065C451.287 533.882 448.991 536.281 446.069 536.281C443.251 536.281 440.851 533.986 440.851 531.065V509.053C440.956 506.132 443.251 503.837 446.069 503.837Z" fill="#EA2B2B"/><path fill-rule="evenodd" clip-rule="evenodd" d="M449.721 504.15C451.704 506.236 451.6 509.47 449.617 511.452L433.755 526.788C431.668 528.77 428.433 528.666 426.45 526.683C424.467 524.597 424.572 521.363 426.555 519.381L442.417 504.045C444.504 502.063 447.739 502.063 449.721 504.15Z" fill="#EA2B2B"/><path fill-rule="evenodd" clip-rule="evenodd" d="M452.539 507.071C450.556 504.984 447.321 504.88 445.234 506.862L424.05 526.579C421.963 528.561 421.859 531.795 423.841 533.882C425.824 535.968 429.059 536.073 431.146 534.09L452.226 514.373C454.417 512.391 454.522 509.157 452.539 507.071Z" fill="#FF4B4B"/><path fill-rule="evenodd" clip-rule="evenodd" d="M445.443 506.862C447.53 504.88 450.765 504.984 452.748 507.071L471.532 527.205C473.514 529.292 473.41 532.526 471.323 534.508C469.236 536.49 466.001 536.386 464.018 534.299L445.234 514.165C443.147 512.078 443.356 508.74 445.443 506.862Z" fill="#FF4B4B"/><path fill-rule="evenodd" clip-rule="evenodd" d="M356.532 503.837C353.715 503.837 351.315 506.132 351.315 509.053V531.065C351.315 533.882 353.61 536.281 356.532 536.281C359.454 536.281 361.75 533.986 361.75 531.065V509.053C361.646 506.132 359.35 503.837 356.532 503.837Z" fill="#EA2B2B"/><path fill-rule="evenodd" clip-rule="evenodd" d="M352.88 504.15C350.897 506.236 351.001 509.47 352.984 511.452L368.846 526.788C370.933 528.77 374.168 528.666 376.151 526.683C378.134 524.597 378.029 521.363 376.047 519.381L360.185 504.045C358.098 502.063 354.863 502.063 352.88 504.15Z" fill="#EA2B2B"/><path fill-rule="evenodd" clip-rule="evenodd" d="M350.062 507.071C352.045 504.984 355.28 504.88 357.367 506.862L378.551 526.579C380.638 528.561 380.743 531.795 378.76 533.882C376.777 535.968 373.542 536.073 371.455 534.09L350.375 514.373C348.184 512.391 348.079 509.157 350.062 507.071Z" fill="#FF4B4B"/><path fill-rule="evenodd" clip-rule="evenodd" d="M357.158 506.862C355.071 504.88 351.836 504.984 349.854 507.071L331.07 527.205C329.087 529.292 329.191 532.526 331.278 534.508C333.365 536.49 336.6 536.386 338.583 534.299L357.367 514.165C359.454 512.078 359.246 508.74 357.158 506.862Z" fill="#FF4B4B"/><path fill-rule="evenodd" clip-rule="evenodd" d="M377.299 536.225H425.302C430.103 536.225 433.964 532.365 433.964 527.566C433.964 526.419 433.755 525.375 433.338 524.332L427.285 509.205C424.363 501.798 417.163 496.895 409.127 496.895H393.265C385.23 496.895 378.134 501.798 375.107 509.205L369.055 524.332C367.281 528.818 369.472 533.826 373.855 535.599C375.107 536.016 376.151 536.225 377.299 536.225Z" fill="#FF4B4B"/><path fill-rule="evenodd" clip-rule="evenodd" d="M340.983 477.387L373.333 484.898L354.863 457.044C357.263 456.105 359.872 455.583 362.689 455.583C374.69 455.583 384.395 465.286 384.395 477.283C384.395 489.28 374.69 498.982 362.689 498.982C350.793 498.982 341.088 489.384 340.983 477.387Z" fill="#FF4B4B" stroke="#FF4B4B" stroke-width="1.98" stroke-linecap="round" stroke-linejoin="round"/><path fill-rule="evenodd" clip-rule="evenodd" d="M464.331 477.387L431.981 484.898L450.452 457.044C448.052 456.105 445.443 455.583 442.625 455.583C430.624 455.583 420.919 465.286 420.919 477.283C420.919 489.28 430.624 498.982 442.625 498.982C454.626 498.982 464.331 489.384 464.331 477.387Z" fill="#FF4B4B" stroke="#FF4B4B" stroke-width="1.98" stroke-linecap="round" stroke-linejoin="round"/><path fill-rule="evenodd" clip-rule="evenodd" d="M408.188 468.624C410.693 468.624 412.675 470.606 412.675 473.11V486.255C412.675 488.758 410.693 490.74 408.188 490.74C405.684 490.74 403.701 488.758 403.701 486.255V473.11C403.701 470.71 405.684 468.624 408.188 468.624Z" fill="#4B4B4B"/><path fill-rule="evenodd" clip-rule="evenodd" d="M395.144 468.624C397.648 468.624 399.631 470.606 399.631 473.11V486.255C399.631 488.758 397.648 490.74 395.144 490.74C392.639 490.74 390.656 488.758 390.656 486.255V473.11C390.656 470.71 392.639 468.624 395.144 468.624Z" fill="#4B4B4B"/><path fill-rule="evenodd" clip-rule="evenodd" d="M383.665 536.121H419.25C422.276 536.121 424.781 533.617 424.781 530.592C424.781 529.862 424.676 529.236 424.363 528.61L421.441 521.203C418.519 513.796 411.319 508.893 403.283 508.893H399.631C391.596 508.893 384.395 513.796 381.473 521.203L378.551 528.61C377.403 531.426 378.864 534.66 381.682 535.808C382.204 536.017 382.934 536.121 383.665 536.121Z" fill="#FF7878"/><path fill-rule="evenodd" clip-rule="evenodd" d="M478.419 77.6216C480.819 73.0314 482.176 67.8153 482.176 62.2862C482.176 43.821 467.044 28.9028 448.26 28.9028C430.103 28.9028 415.389 42.8821 414.449 60.5127C412.467 59.8867 410.484 59.5738 408.292 59.5738C396.918 59.5738 387.63 68.5456 387.63 79.7081C387.63 90.8707 396.918 99.8424 408.292 99.8424C408.501 99.8424 408.71 99.8424 408.814 99.8424C408.919 99.8424 409.127 99.8424 409.232 99.8424H495.533C501.69 99.8424 506.595 94.8349 506.595 88.7842C506.595 82.6291 501.586 77.726 495.533 77.726H478.419V77.6216Z" fill="white"/><path fill-rule="evenodd" clip-rule="evenodd" d="M628.169 126.549C624.203 118.934 621.908 110.275 621.908 100.99C621.908 70.4233 646.953 45.5945 677.946 45.5945C707.896 45.5945 732.42 68.8585 733.881 98.0689C737.116 97.13 740.455 96.6084 744.003 96.6084C762.892 96.6084 778.127 111.527 778.127 129.992C778.127 148.457 762.787 163.375 744.003 163.375C743.69 163.375 743.377 163.375 743.064 163.375C742.855 163.375 742.647 163.375 742.334 163.375H599.784C589.662 163.375 581.418 155.134 581.418 145.014V144.91C581.418 134.791 589.662 126.549 599.784 126.549H628.169Z" fill="white"/><path d="M203.148 220.969L252.064 197.873C256.277 194.858 256.246 188.646 252.032 185.656C232.082 171.181 201.695 171.657 181.141 182.868C160.587 194.078 162.42 199.615 170.964 206.421C176.872 210.964 198.935 223.984 203.148 220.969Z" fill="#58CC02"/><path d="M357.351 143.995L275.038 193.379C270.664 195.995 270.06 202.19 274.008 205.534C292.625 221.776 320.055 224.244 341.822 211.178C363.59 198.111 374.258 172.803 368.66 148.727C367.432 143.737 361.725 141.378 357.351 143.995Z" fill="#58CC02"/><path fill-rule="evenodd" clip-rule="evenodd" d="M273.811 285.099C277.553 287.734 278.294 293.003 275.644 296.641L267.961 307.202C265.326 310.943 260.056 311.684 256.416 309.034C252.674 306.4 251.933 301.131 254.583 297.493L262.266 286.932C265.005 283.176 270.157 282.347 273.811 285.099Z" fill="#F49000"/><path fill-rule="evenodd" clip-rule="evenodd" d="M329.239 286.583C330.09 282.144 327.149 277.711 322.708 276.86L309.919 274.338C305.479 273.486 301.045 276.427 300.194 280.866C299.342 285.305 302.284 289.738 306.724 290.589L319.514 293.112C324.072 294.052 328.402 291.126 329.239 286.583Z" fill="#F49000"/><path fill-rule="evenodd" clip-rule="evenodd" d="M229.64 129.067C247.161 133.77 258.919 135.7 265.119 134.829C271.216 133.972 281.897 128.995 297.045 119.809C307.241 113.636 320.457 116.941 326.632 127.136C328.147 129.662 329.056 132.379 329.462 135.271L338.715 201.08C343.625 235.998 319.305 268.386 284.273 273.307C249.345 278.214 216.948 253.899 212.024 218.877L202.756 152.966C201.1 141.188 209.271 130.348 221.051 128.693C223.93 128.184 226.896 128.294 229.64 129.067Z" fill="#58CC02"/><path d="M237.734 139.415L259.653 157.406C260.846 158.397 260.68 160.211 259.423 161.02C253.32 164.827 245.234 164.277 239.504 159.499C233.774 154.72 231.829 146.881 234.574 140.175C235.226 138.819 236.541 138.424 237.734 139.415Z" fill="#89E219"/><path fill-rule="evenodd" clip-rule="evenodd" d="M255.203 154.237C262.598 160.362 274.275 158.722 279.487 150.826C281.797 167.252 285.239 191.736 285.21 191.53C285.196 191.426 277.136 192.558 260.926 194.941C259.138 182.972 257.235 169.438 255.203 154.237Z" fill="#89E219"/><path d="M228.82 145.724L250.444 163.862C251.637 164.853 251.471 166.667 250.214 167.476C244.111 171.283 236.025 170.733 230.295 165.955C224.565 161.176 222.62 153.337 225.365 146.631C225.899 145.186 227.73 144.718 228.82 145.724Z" fill="#89E219"/><path fill-rule="evenodd" clip-rule="evenodd" d="M235.025 149.382L236.885 149.12C249.905 147.291 262.045 156.437 263.875 169.454L266.025 184.744C267.855 197.761 258.708 209.897 245.687 211.726L243.827 211.987C230.807 213.816 218.667 204.671 216.837 191.654L214.687 176.364C212.857 163.347 222.004 151.211 235.025 149.382Z" fill="#89E219"/><path d="M291.78 131.822L275.996 155.214C275.122 156.496 275.782 158.194 277.213 158.625C284.13 160.603 291.751 157.847 295.941 151.675C300.132 145.503 299.84 137.432 295.352 131.741C294.439 130.5 292.654 130.54 291.78 131.822Z" fill="#89E219"/><path d="M301.881 135.459L286.097 158.852C285.223 160.133 285.883 161.832 287.314 162.263C294.231 164.241 301.852 161.485 306.042 155.312C310.233 149.14 309.941 141.069 305.453 135.379C304.54 134.137 302.755 134.178 301.881 135.459Z" fill="#89E219"/><path fill-rule="evenodd" clip-rule="evenodd" d="M296.026 140.285L297.886 140.023C310.906 138.194 323.046 147.34 324.876 160.357L327.026 175.647C328.856 188.664 319.709 200.8 306.688 202.629L304.932 202.876C291.911 204.705 279.904 195.751 277.97 182.749L275.717 167.473C273.783 154.471 282.813 142.246 295.819 140.314C295.922 140.299 296.026 140.285 296.026 140.285Z" fill="#89E219"/><path fill-rule="evenodd" clip-rule="evenodd" d="M236.495 158.341C246.105 156.991 254.945 163.65 256.296 173.258L257.763 183.692C259.114 193.3 252.453 202.137 242.843 203.487C233.232 204.837 224.393 198.177 223.042 188.57L221.575 178.135C220.224 168.528 226.885 159.691 236.495 158.341Z" fill="white"/><path fill-rule="evenodd" clip-rule="evenodd" d="M298.085 149.687C307.696 148.337 316.535 154.997 317.886 164.605L319.353 175.039C320.704 184.647 314.043 193.484 304.433 194.834C294.823 196.184 285.983 189.524 284.632 179.916L283.165 169.482C281.814 159.874 288.475 151.037 298.085 149.687Z" fill="white"/><path fill-rule="evenodd" clip-rule="evenodd" d="M240.576 167.881C245.123 167.242 249.263 170.453 249.887 174.896L251.151 183.884C251.79 188.429 248.578 192.568 244.135 193.192C239.692 193.816 235.449 190.619 234.824 186.177L233.56 177.189C232.936 172.747 236.029 168.52 240.576 167.881Z" fill="#122431"/><path fill-rule="evenodd" clip-rule="evenodd" d="M271.511 180.285C276.471 179.588 281.067 183.051 281.765 188.01L282.113 190.49C282.811 195.448 279.347 200.044 274.387 200.74C269.426 201.437 264.83 197.974 264.133 193.015L263.784 190.536C263.087 185.577 266.55 180.982 271.511 180.285Z" fill="#F49000"/><path d="M260.067 189.583C260.302 183.756 264.947 178.573 271.458 177.659C277.245 176.846 283.14 180.548 284.972 186.085L285.073 186.808L272.963 190.616L260.272 190.292L260.171 189.569L260.067 189.583Z" fill="#FFC200"/><path d="M269.57 183.718C268.683 184.159 267.592 183.891 267.151 183.005C266.71 182.118 266.978 181.027 267.865 180.587C269.919 179.455 272.192 179.136 274.582 179.643C275.556 179.822 276.217 180.783 275.935 181.771C275.652 182.759 274.795 183.406 273.807 183.123C272.287 182.81 270.841 183.013 269.57 183.718Z" fill="#FFDE00"/><path fill-rule="evenodd" clip-rule="evenodd" d="M296.69 159.997C301.237 159.358 305.376 162.57 306.001 167.012L307.265 176C307.904 180.545 304.692 184.684 300.248 185.308C295.702 185.947 291.562 182.736 290.937 178.293L289.674 169.305C289.049 164.863 292.246 160.621 296.69 159.997Z" fill="#122431"/><path d="M233.554 168.289C230.7 168.69 228.719 171.374 229.128 174.284C229.537 177.194 232.182 179.228 235.036 178.827C237.889 178.426 239.871 175.742 239.462 172.832C239.053 169.922 236.408 167.888 233.554 168.289Z" fill="white"/><path d="M288.751 160.534C285.898 160.935 283.916 163.619 284.325 166.529C284.734 169.438 287.379 171.472 290.233 171.072C293.086 170.671 295.068 167.987 294.659 165.077C294.25 162.167 291.605 160.133 288.751 160.534Z" fill="white"/><path d="M219.342 186.245L222.776 201.67C232.323 202.12 239.416 204.6 252.144 208.185L256.4 192.733C242.58 188.88 230.262 186.712 219.342 186.245Z" fill="#8EE000"/><path d="M321.028 171.959L326.115 187.152C317.061 190.215 306.794 195.134 295.547 202.087L287.195 188.405C299.417 180.894 310.66 175.417 321.028 171.959Z" fill="#8EE000"/><path d="M256.164 231.533L272.078 229.298C272.905 229.182 273.641 229.921 273.536 230.673C272.819 234.567 269.448 237.569 265.225 238.267C261.003 238.966 257.008 236.788 255.157 233.361C254.834 232.563 255.337 231.649 256.164 231.533Z" fill="#8EE000"/><path d="M283.962 227.628L299.877 225.392C300.703 225.276 301.44 226.015 301.335 226.768C300.617 230.661 297.246 233.663 293.024 234.362C288.801 235.06 284.807 232.882 282.955 229.455C282.632 228.658 283.136 227.744 283.962 227.628Z" fill="#8EE000"/><path d="M271.9 243.018L287.814 240.782C288.641 240.666 289.377 241.406 289.272 242.158C288.555 246.051 285.183 249.053 280.961 249.752C276.724 250.347 272.744 248.272 270.892 244.845C270.569 244.048 271.073 243.134 271.9 243.018Z" fill="#8EE000"/><path fill-rule="evenodd" clip-rule="evenodd" d="M182.04 193.282L359.53 205.693C377.435 206.945 390.893 222.424 389.641 240.326C388.39 258.228 372.908 271.684 355.003 270.432L177.513 258.02C159.608 256.768 146.15 241.289 147.402 223.387C148.646 205.589 164.135 192.029 182.04 193.282Z" fill="#FFAADE"/><path fill-rule="evenodd" clip-rule="evenodd" d="M389.526 241.976C387.492 259.093 372.38 271.739 354.995 270.524L177.504 258.121C160.119 256.906 146.915 242.281 147.284 225.048L389.526 241.976Z" fill="#FF9BD8"/><path fill-rule="evenodd" clip-rule="evenodd" d="M332.096 210.568L357.705 212.357C362.077 212.663 365.369 216.449 365.063 220.82C364.757 225.191 360.97 228.482 356.598 228.177L330.989 226.388C326.617 226.082 323.325 222.296 323.631 217.925C323.937 213.554 327.724 210.262 332.096 210.568Z" fill="#FFCDF0"/><path fill-rule="evenodd" clip-rule="evenodd" d="M300.866 208.385L309.818 209.01C313.045 209.236 315.466 212.019 315.24 215.246C315.014 218.472 312.23 220.892 309.003 220.667L300.05 220.041C296.823 219.816 294.403 217.032 294.629 213.806C294.854 210.579 297.639 208.159 300.866 208.385Z" fill="#FFCDF0"/><path fill-rule="evenodd" clip-rule="evenodd" d="M215.918 215.937L222.059 216.366C229.034 216.853 234.359 222.977 233.871 229.95C233.383 236.923 227.257 242.247 220.282 241.76L214.141 241.331C207.166 240.843 201.841 234.719 202.329 227.746C202.824 220.669 208.943 215.449 215.918 215.937Z" fill="#FF9BD8"/><path fill-rule="evenodd" clip-rule="evenodd" d="M215.917 220.434L222.059 220.863C226.327 221.161 229.618 224.947 229.32 229.214C229.021 233.481 225.234 236.772 220.966 236.474L214.824 236.045C210.556 235.747 207.265 231.961 207.563 227.694C207.862 223.427 211.649 220.135 215.917 220.434Z" fill="#FFAADE"/><path fill-rule="evenodd" clip-rule="evenodd" d="M215.965 222.738L217.214 222.825C220.129 223.029 222.459 225.597 222.248 228.615C222.044 231.529 219.475 233.86 216.456 233.649L215.207 233.561C212.292 233.358 209.962 230.79 210.173 227.771C210.384 224.753 212.946 222.527 215.965 222.738Z" fill="#FF9BD8"/><path fill-rule="evenodd" clip-rule="evenodd" d="M170.501 192.23L193.05 191.4C194.306 191.383 195.393 192.296 195.41 193.552L196.293 212.334C196.483 215.589 193.878 218.44 190.629 218.527C190.317 218.505 189.9 218.476 189.588 218.454C184.301 217.771 179.324 215.645 174.754 212.188C170.288 208.739 167.122 204.648 165.375 199.715C164.322 196.818 165.908 193.582 168.806 192.53C169.342 192.358 169.869 192.29 170.501 192.23Z" fill="#58CC02"/><path opacity="0.25" fill-rule="evenodd" clip-rule="evenodd" d="M901.162 607.895L-113.797 595.585C-173.592 369.308 -171.297 258.518 -106.909 263.003C-10.3808 269.784 23.1172 235.358 150.326 236.505C277.535 237.653 285.362 258.622 397.126 259.561C508.891 260.604 508.891 237.131 636.1 238.279C763.309 239.426 862.968 283.972 1011.05 244.225C1109.66 217.832 1073.04 339.055 901.162 607.895Z" fill="#1CB0F6"/></g></svg>