<svg viewBox="0 0 136 153" fill="none" xmlns="http://www.w3.org/2000/svg"><g clip-path="url(#clip0)"><path opacity="0.3" fill-rule="evenodd" clip-rule="evenodd" d="M22.0291 143.405H114.305C116.805 143.405 118.851 145.455 118.851 147.96C118.851 150.466 116.805 152.516 114.305 152.516H22.0291C19.529 152.516 17.4835 150.466 17.4835 147.96C17.4835 145.455 19.529 143.405 22.0291 143.405Z" fill="#AFAFAF"/><path fill-rule="evenodd" clip-rule="evenodd" d="M38.3933 135.888C38.3933 131.742 41.7571 128.371 45.8936 128.371H57.7121C61.8486 128.371 65.2124 131.742 65.2124 135.888C65.2124 140.034 61.8486 143.405 57.7121 143.405H45.8936C41.7571 143.405 38.3933 140.034 38.3933 135.888Z" fill="#F49000"/><path fill-rule="evenodd" clip-rule="evenodd" d="M70.6671 135.888C70.6671 131.742 74.0309 128.371 78.1674 128.371H89.9859C94.1225 128.371 97.4862 131.742 97.4862 135.888C97.4862 140.034 94.1225 143.405 89.9859 143.405H78.1674C74.0309 143.405 70.6671 140.034 70.6671 135.888Z" fill="#F49000"/><path d="M0.573837 126.276L17.1198 40.677C18.029 36.0759 23.0746 33.707 27.1656 35.9848C46.7572 46.8726 57.3485 69.5137 52.9392 92.1092C48.53 114.705 30.3021 131.697 8.07409 134.43C3.52848 134.977 -0.289828 130.877 0.573837 126.276Z" fill="#58CC02"/><path d="M135.397 126.276L118.851 40.677C117.941 36.0759 112.896 33.707 108.805 35.9848C89.2132 46.8726 78.6219 69.5137 83.0312 92.1092C87.3949 114.75 105.668 131.697 127.896 134.43C132.442 134.977 136.26 130.877 135.397 126.276Z" fill="#58CC02"/><path fill-rule="evenodd" clip-rule="evenodd" d="M36.8478 2.36456C51.9847 8.7879 62.3487 11.9768 67.9398 11.9768C73.4854 11.9768 83.713 8.83345 98.5317 2.50123C108.441 -1.73544 119.896 2.91123 124.123 12.8423C125.169 15.2568 125.669 17.8535 125.669 20.4957V80.8112C125.669 112.882 99.7136 138.895 67.7125 138.895C35.7114 138.895 9.75598 112.837 9.75598 80.7657V20.359C9.75598 9.56234 18.4835 0.815674 29.2566 0.815674C31.8931 0.815674 34.4841 1.36234 36.8478 2.36456Z" fill="#58CC02"/><path d="M63.4397 99.2613C63.667 98.578 63.1215 97.8491 62.3487 97.8491H47.7573C46.9846 97.8491 46.4391 98.578 46.6664 99.2613C47.8028 102.632 51.212 105.001 55.0303 105.001C58.8941 105.001 62.2578 102.678 63.4397 99.2613ZM87.8041 97.8491H73.2128C72.44 97.8491 71.8945 98.578 72.1218 99.2613C73.2582 102.632 76.6674 105.001 80.4857 105.001C84.3495 105.001 87.7132 102.678 88.8951 99.2613C89.1224 98.578 88.5769 97.8491 87.8041 97.8491ZM75.0764 110.149H60.4851C59.7123 110.149 59.1668 110.878 59.3941 111.561C60.5305 114.932 63.9397 117.301 67.758 117.301C71.6218 117.301 74.9855 114.978 76.1674 111.561C76.3947 110.878 75.8492 110.149 75.0764 110.149Z" fill="#89E219"/><path d="M42.5299 12.7968L59.9851 31.7935C60.8942 32.7957 60.576 34.4357 59.3032 34.9823C53.303 37.6701 46.1664 36.1668 41.6663 31.1557C37.1661 26.1446 36.3934 18.8557 39.7117 13.1612C40.348 11.9768 41.6208 11.7946 42.5299 12.7968Z" fill="#89E219"/><path fill-rule="evenodd" clip-rule="evenodd" d="M56.6213 28.1947C62.4396 34.6181 73.1218 34.6181 78.8493 28.1492C78.8493 43.1825 78.8493 65.5958 78.8493 65.5047C78.8493 65.4136 71.4399 65.4136 56.6213 65.5047C56.5758 54.5258 56.5758 42.0892 56.6213 28.1947Z" fill="#89E219"/><path d="M34.0752 17.3525L51.1666 36.3492C52.0758 37.3514 51.7576 38.9914 50.4848 39.5381C44.4846 42.2259 37.348 40.7225 32.8024 35.6659C28.2568 30.6092 27.5295 23.3659 30.8023 17.6714C31.5296 16.487 33.166 16.3503 34.0752 17.3525Z" fill="#89E219"/><path fill-rule="evenodd" clip-rule="evenodd" d="M39.1662 21.3157H40.8481C52.803 21.3157 62.4852 31.019 62.4852 43.0001V56.9857C62.4852 68.9668 52.803 78.6701 40.8481 78.6701H39.1662C27.2112 78.6701 17.5291 68.9668 17.5291 56.9857V43.0001C17.4836 31.019 27.2112 21.3157 39.1662 21.3157Z" fill="#89E219"/><path d="M92.6679 12.7969L75.6219 31.7935C74.7128 32.7958 75.031 34.4358 76.3037 34.9824C82.3039 37.6702 89.4406 36.1669 93.9862 31.1102C98.4863 26.0991 99.2591 18.8102 95.9862 13.1158C95.2589 11.9313 93.6225 11.7947 92.6679 12.7969Z" fill="#89E219"/><path d="M100.941 17.3525L83.8494 36.3492C82.9403 37.3514 83.2585 38.9914 84.5313 39.5381C90.5315 42.2259 97.6681 40.7225 102.214 35.6659C106.714 30.6548 107.487 23.3659 104.214 17.6714C103.486 16.487 101.85 16.3503 100.941 17.3525Z" fill="#89E219"/><path fill-rule="evenodd" clip-rule="evenodd" d="M95.0772 20.8601H96.7591C108.714 20.8601 118.396 30.5634 118.396 42.5445V56.5301C118.396 68.5112 108.714 78.2145 96.7591 78.2145H95.1681C83.2586 78.2145 73.6219 68.6023 73.531 56.7123L73.4401 42.7268C73.3492 30.7457 82.9404 20.9512 94.8954 20.8601C94.9408 20.8601 94.9863 20.8601 95.0772 20.8601Z" fill="#89E219"/><path fill-rule="evenodd" clip-rule="evenodd" d="M39.3026 29.5156C48.0756 29.5156 55.2122 36.6678 55.2122 45.4601V55.0267C55.2122 63.819 48.0756 70.9712 39.3026 70.9712C30.5295 70.9712 23.3929 63.819 23.3929 55.0267V45.4601C23.3929 36.6678 30.5295 29.5156 39.3026 29.5156Z" fill="white"/><path fill-rule="evenodd" clip-rule="evenodd" d="M41.8027 38.6267H41.8481C45.9846 38.6267 49.3029 41.9978 49.3029 46.0978V54.3434C49.3029 58.4889 45.9392 61.8145 41.8481 61.8145H41.8027C37.6662 61.8145 34.3479 58.4434 34.3479 54.3434V46.0978C34.3024 41.9978 37.6662 38.6267 41.8027 38.6267Z" fill="#122431"/><path fill-rule="evenodd" clip-rule="evenodd" d="M39.3025 25.8711C49.0755 25.8711 57.0303 33.8433 57.0303 43.6378V54.1155H21.5746V43.6378C21.5746 33.8433 29.5294 25.8711 39.3025 25.8711Z" fill="#89E219"/><path fill-rule="evenodd" clip-rule="evenodd" d="M95.668 29.5156C104.441 29.5156 111.578 36.6678 111.578 45.4601V55.0267C111.578 63.819 104.441 70.9712 95.668 70.9712C86.895 70.9712 79.7584 63.819 79.7584 55.0267V45.4601C79.7584 36.6678 86.895 29.5156 95.668 29.5156Z" fill="white"/><path fill-rule="evenodd" clip-rule="evenodd" d="M93.168 38.6267H93.2135C97.35 38.6267 100.668 41.9978 100.668 46.0978V54.3434C100.668 58.4889 97.3045 61.8145 93.2135 61.8145H93.168C89.0315 61.8145 85.7132 58.4434 85.7132 54.3434V46.0978C85.6678 41.9978 89.0315 38.6267 93.168 38.6267Z" fill="#122431"/><path fill-rule="evenodd" clip-rule="evenodd" d="M96.5772 25.8711C106.35 25.8711 114.305 33.8433 114.305 43.6378V54.1155H78.8494V43.6378C78.8494 33.8433 86.8042 25.8711 96.5772 25.8711Z" fill="#89E219"/><path fill-rule="evenodd" clip-rule="evenodd" d="M67.9399 56.3933C72.4401 56.3933 76.122 60.0833 76.122 64.5933V66.8711C76.122 71.3811 72.4401 75.0711 67.9399 75.0711C63.4398 75.0711 59.7578 71.3811 59.7578 66.8711V64.5933C59.7578 60.0833 63.4398 56.3933 67.9399 56.3933Z" fill="#F49000"/><path d="M56.5758 65.6411C57.5304 60.4478 62.3033 56.3933 68.258 56.3933C73.5764 56.3933 78.3493 60.4478 79.3038 65.6411V68.2378H67.9398H56.5758V65.6411Z" fill="#FFC200"/><path d="M65.8035 61.5867C64.9398 61.9056 64.0307 61.45 63.7125 60.63C63.3943 59.81 63.8489 58.8534 64.6671 58.5345C66.7126 57.8056 68.7581 57.8056 70.7582 58.5345C71.6219 58.8534 72.031 59.7645 71.7128 60.63C71.3946 61.4956 70.4855 61.9056 69.6218 61.5867C68.349 61.0856 67.0763 61.0856 65.8035 61.5867Z" fill="#FFDE00"/></g><defs><clipPath id="clip0"><rect width="135.05" height="151.7" fill="white" transform="translate(0.4375 0.815674)"/></clipPath></defs></svg>