<svg viewBox="0 0 198 198" fill="none" xmlns="http://www.w3.org/2000/svg"><g clip-path="url(#clip0)"><path fill-rule="evenodd" clip-rule="evenodd" d="M9.6993 36.7958C14.0519 40.1134 19.8388 40.4105 23.9441 37.6376C24.785 37.0434 24.785 35.8055 23.8947 35.1122L7.42409 22.5845C7.07786 22.3369 6.73163 22.2379 6.3854 22.2379C5.74241 22.2379 5.19833 22.5845 5.00049 23.2282C3.46719 27.9818 5.34672 33.4782 9.6993 36.7958Z" fill="#58CC02"/><path fill-rule="evenodd" clip-rule="evenodd" d="M110.85 91.6107L21.6711 62.6434C20.9291 62.3958 20.1378 62.2968 19.3959 62.2968C15.439 62.2968 11.9767 65.5154 11.9767 69.7738C11.9272 94.0865 27.6064 115.973 51.1499 123.648C74.6934 131.323 100.265 122.856 114.46 103.148C117.477 98.9886 115.598 93.1952 110.85 91.6107Z" fill="#58CC02"/><path fill-rule="evenodd" clip-rule="evenodd" d="M176.237 33.2306C174.753 33.2306 173.22 33.7258 171.884 34.7161L97.9397 91.5612C93.9828 94.6312 94.1312 100.771 98.2365 103.742C118.021 118.053 144.73 117.904 164.267 102.851C183.804 87.8474 191.322 61.7026 183.26 38.3308C182.172 35.1122 179.254 33.2306 176.237 33.2306Z" fill="#58CC02"/><path fill-rule="evenodd" clip-rule="evenodd" d="M60.643 122.261L165.451 101.861C165.847 96.8099 165.6 91.5611 164.511 86.3619L154.669 37.9842C153.778 33.6762 151.454 29.7644 148.09 26.942C144.48 23.9214 140.078 22.4359 135.725 22.4359C130.185 22.4359 124.695 24.8127 120.837 29.4178C117.128 33.8743 113.27 36.4987 109.214 37.2909C102.537 38.5784 88.3412 37.9842 66.5783 35.4093C64.5504 35.1617 62.473 35.2607 60.4451 35.6569C49.9593 37.8356 43.2326 48.0856 45.4089 58.5336L55.499 107.505C56.4882 112.804 58.2688 117.706 60.643 122.261Z" fill="#58CC02"/><path fill-rule="evenodd" clip-rule="evenodd" d="M98.0329 165.985C98.5275 166.084 99.0221 166.183 99.5168 166.282C127.907 171.53 155.21 152.764 160.453 124.341L163.421 108.446C168.911 78.8354 150.017 50.2148 120.637 43.629C119.994 43.4805 119.351 43.3815 118.708 43.2329C115.542 42.6387 112.377 42.3416 109.211 42.3416C84.6784 42.3416 62.8166 59.8705 58.2167 84.8764L55.1501 101.613C49.7588 131.174 68.7025 159.696 98.0329 165.985Z" fill="#58CC02"/><path fill-rule="evenodd" clip-rule="evenodd" d="M124.154 121.271C124.055 121.271 124.005 121.271 123.907 121.271L109.662 124.094C108.92 124.242 108.475 125.084 108.87 125.728C110.651 128.847 114.41 130.481 118.169 129.738C121.928 128.996 124.797 126.074 125.291 122.509C125.341 121.816 124.846 121.271 124.154 121.271ZM147.747 116.666C147.648 116.666 147.598 116.666 147.5 116.666L133.255 119.489C132.513 119.637 132.068 120.479 132.463 121.123C134.244 124.242 138.003 125.876 141.762 125.133C145.521 124.391 148.39 121.469 148.884 117.904C148.934 117.211 148.39 116.666 147.747 116.666ZM138.943 130.927C138.844 130.927 138.794 130.927 138.695 130.927L124.451 133.749C123.709 133.898 123.264 134.74 123.659 135.383C125.44 138.503 129.199 140.137 132.958 139.394C136.717 138.651 139.586 135.73 140.08 132.165C140.13 131.472 139.586 130.927 138.943 130.927Z" fill="#89E219"/><path fill-rule="evenodd" clip-rule="evenodd" d="M133.695 81.8559C132.805 59.9696 130.727 49.0264 127.512 49.0264C126.573 49.0264 125.583 49.9177 124.446 51.7003C121.231 56.9986 113.465 59.4249 107.58 55.0179C103.623 52.0964 104.463 62.5444 110.003 86.4114L133.695 81.8559Z" fill="#89E219"/><path fill-rule="evenodd" clip-rule="evenodd" d="M97.4406 106.515L99.1223 106.169C110.795 103.891 118.363 92.601 116.137 80.9646L113.565 67.6446C111.586 57.3452 102.585 50.2148 92.4945 50.2148C91.1096 50.2148 89.7741 50.3633 88.3892 50.6109L86.7075 50.9575C75.0347 53.2353 67.4671 64.5251 69.6929 76.1615L72.2649 89.4815C74.4906 101.167 85.7678 108.793 97.4406 106.515Z" fill="#89E219"/><path fill-rule="evenodd" clip-rule="evenodd" d="M91.8513 59.6725C97.2425 63.7823 104.563 63.8814 109.954 60.1181C111.092 59.3258 111.092 57.6918 110.004 56.85L89.1804 41.4503C88.7847 41.1532 88.389 41.0047 87.9933 41.0047C87.3008 41.0047 86.7073 41.4503 86.4105 42.3416C84.2837 48.5312 86.4105 55.6121 91.8513 59.6725Z" fill="#89E219"/><path fill-rule="evenodd" clip-rule="evenodd" d="M83.7918 65.862C89.183 69.9719 96.5033 70.0709 101.895 66.3077C103.032 65.5154 103.032 63.8814 101.944 63.0396L81.5166 47.5409C81.1703 47.2438 80.7252 47.1447 80.28 47.1447C79.4392 47.1447 78.6478 47.6399 78.351 48.5312C76.2737 54.7208 78.4005 61.8017 83.7918 65.862Z" fill="#89E219"/><path fill-rule="evenodd" clip-rule="evenodd" d="M126.474 53.5324C132.657 55.315 138.79 53.4334 141.609 48.7293C144.428 44.0252 143.192 37.6376 138.74 33.0325C138.246 32.5373 137.702 32.2898 137.207 32.2898C136.712 32.2898 136.317 32.5373 136.02 32.983L125.04 50.8585C124.446 51.7993 125.188 53.1363 126.474 53.5324Z" fill="#89E219"/><path fill-rule="evenodd" clip-rule="evenodd" d="M135.129 57.8899C141.312 59.6725 147.445 57.7908 150.264 53.0868C153.084 48.3827 151.847 41.995 147.396 37.39C146.901 36.8948 146.357 36.6472 145.862 36.6472C145.368 36.6472 144.972 36.8948 144.675 37.3405L133.695 55.216C133.151 56.1568 133.843 57.4937 135.129 57.8899Z" fill="#89E219"/><path fill-rule="evenodd" clip-rule="evenodd" d="M148.587 96.5624C157.786 94.7798 163.821 85.8668 162.04 76.6072L157.737 54.4237C156.154 46.303 149.032 40.6581 141.068 40.6581C139.98 40.6581 138.892 40.7571 137.804 40.9552C128.604 42.7378 122.57 51.6508 124.351 60.9104L128.654 83.0938C130.484 92.3534 139.387 98.3449 148.587 96.5624Z" fill="#89E219"/><path fill-rule="evenodd" clip-rule="evenodd" d="M139.574 49.0759C138.782 49.0759 137.942 49.175 137.15 49.3235C130.275 50.6605 125.774 57.2957 127.11 64.228L130.127 79.8258C131.462 86.7086 138.139 91.2146 145.015 89.8776C151.89 88.5407 156.391 81.8559 155.055 74.9731L152.038 59.3754C150.851 53.2848 145.559 49.0759 139.574 49.0759Z" fill="white"/><path fill-rule="evenodd" clip-rule="evenodd" d="M142.095 65.2183C141.7 65.2183 141.304 65.2678 140.908 65.3174C137.594 65.9611 135.468 69.1797 136.111 72.4477L138.287 83.5395C138.93 86.8571 142.145 88.9863 145.409 88.3426C148.723 87.6989 150.85 84.4803 150.207 81.2122L148.08 70.17C147.536 67.2485 144.964 65.2183 142.095 65.2183Z" fill="#4B4B4B"/><path fill-rule="evenodd" clip-rule="evenodd" d="M135.967 75.3197C133.296 75.2702 131.119 73.0419 131.169 70.368C131.218 67.6446 133.444 65.5154 136.115 65.5649C138.786 65.6144 140.962 67.8427 140.913 70.5166C140.863 73.1905 138.637 75.3692 135.967 75.3197Z" fill="white"/><path fill-rule="evenodd" clip-rule="evenodd" d="M92.5905 57.7908C91.6013 57.7908 90.5626 57.8899 89.5239 58.0879C80.9177 59.7715 75.2791 68.0903 76.9608 76.7062L78.8898 86.5105C80.5714 95.1264 88.8809 100.771 97.4872 99.0877C106.093 97.4041 111.732 89.0853 110.05 80.4694L108.171 70.6652C106.687 63.0891 100.059 57.7908 92.5905 57.7908Z" fill="white"/><path fill-rule="evenodd" clip-rule="evenodd" d="M95.2611 74.0323C91.2053 74.8245 88.5839 78.7364 89.3753 82.7472L91.0075 91.1155C91.7989 95.1759 95.7063 97.8003 99.7126 97.008C103.768 96.2157 106.39 92.3039 105.599 88.2931L103.966 79.9248C103.274 76.3596 100.158 73.8837 96.646 73.8837C96.2009 73.8837 95.7558 73.9332 95.2611 74.0323Z" fill="#4B4B4B"/><path fill-rule="evenodd" clip-rule="evenodd" d="M90.4626 83.589C87.7917 83.5395 85.6154 81.3112 85.6649 78.6373C85.7144 75.9139 87.9401 73.7847 90.611 73.8342C93.2819 73.8837 95.4582 76.112 95.4087 78.7859C95.4087 81.4598 93.183 83.6385 90.4626 83.589Z" fill="white"/><path fill-rule="evenodd" clip-rule="evenodd" d="M117.875 98.8401C117.875 98.9391 117.925 99.0382 117.925 99.1372C118.765 103.495 123.019 106.367 127.372 105.525L127.817 105.426C128.114 105.376 128.46 105.277 128.757 105.178C132.812 103.841 135.088 99.4343 133.752 95.3739L130.488 85.4211C129.449 82.252 126.531 80.2219 123.365 80.2219C122.871 80.2219 122.327 80.2714 121.832 80.3704C118.122 81.1627 115.699 84.6784 116.292 88.3921L117.875 98.8401Z" fill="#F49000"/><path fill-rule="evenodd" clip-rule="evenodd" d="M121.039 97.4041C121.88 100.326 124.847 102.108 127.815 101.514L128.211 101.415C128.409 101.365 128.557 101.316 128.755 101.266C131.525 100.425 133.009 97.5031 132.168 94.7302L129.447 86.0648C128.656 83.589 126.381 81.9549 123.858 81.9549C123.463 81.9549 123.067 82.0044 122.721 82.054L122.424 82.1035C122.276 82.153 122.127 82.153 122.028 82.2025C119.308 82.9948 117.725 85.8667 118.516 88.5902L121.039 97.4041Z" fill="#DC6A01"/><path fill-rule="evenodd" clip-rule="evenodd" d="M127.817 101.514L128.213 101.415C128.411 101.365 128.559 101.316 128.757 101.266C129.153 101.167 129.499 100.969 129.796 100.821C129.796 100.227 129.796 99.6324 129.647 98.9887C128.955 95.3244 125.74 92.7496 122.129 92.7496C121.635 92.7496 121.14 92.7991 120.695 92.8981C120.398 92.9476 120.101 93.0467 119.805 93.1457L121.041 97.4041C121.882 100.326 124.8 102.108 127.817 101.514Z" fill="#FFCAFF"/><path fill-rule="evenodd" clip-rule="evenodd" d="M133.652 86.8571L137.757 85.8667L137.609 85.5201C135.976 81.0636 131.673 78.1917 126.974 78.1917C126.232 78.1917 125.491 78.2412 124.749 78.3897C119.209 79.4791 115.302 84.3317 115.499 89.8281V90.2242L133.652 86.8571Z" fill="#FFC200"/><path d="M128.161 83.0938C128.013 83.1433 127.864 83.1433 127.666 83.0938C126.38 82.8462 125.144 83.0443 123.957 83.6385C123.264 83.9851 122.374 83.688 122.028 82.9948C121.682 82.3015 121.978 81.4102 122.671 81.0636C124.402 80.1723 126.282 79.9247 128.161 80.2713C128.952 80.4199 129.447 81.1626 129.348 81.9549C129.249 82.5491 128.755 82.9948 128.161 83.0938Z" fill="#FFDE00"/><path fill-rule="evenodd" clip-rule="evenodd" d="M186.13 125.331C184.596 125.331 183.014 125.827 181.678 126.817C181.678 126.817 181.629 126.817 181.629 126.866L172.231 134.046C168.917 136.572 168.274 141.276 170.747 144.593C173.22 147.911 177.87 148.555 181.134 146.079C181.134 146.079 181.184 146.079 181.184 146.029L190.581 138.85C193.895 136.324 194.538 131.62 192.065 128.302C190.631 126.371 188.405 125.331 186.13 125.331Z" fill="#F49000"/><path fill-rule="evenodd" clip-rule="evenodd" d="M91.8546 143.009C91.4589 142.959 91.0632 142.91 90.6675 142.91C87.0568 142.91 83.9408 145.534 83.3472 149.198L81.4677 161.082C80.8247 165.143 83.5946 169.005 87.6504 169.649C91.7062 170.293 95.5147 167.52 96.1577 163.459L98.0372 151.575C98.6802 147.465 95.9104 143.653 91.8546 143.009Z" fill="#F49000"/></g><defs><clipPath id="clip0"><rect width="189.09" height="147.51" fill="white" transform="translate(4.45703 22.2379)"/></clipPath></defs></svg>