<svg viewBox="0 0 159 181" fill="none" xmlns="http://www.w3.org/2000/svg"><g clip-path="url(#clip0)"><path opacity="0.3" d="M139.726 180.821C142.046 180.821 143.945 178.924 143.945 176.606C143.945 174.288 142.046 172.392 139.726 172.392H4.71896C2.39853 172.392 0.5 174.288 0.5 176.606C0.5 178.924 2.39853 180.821 4.71896 180.821H139.726Z" fill="#AFAFAF"/><path fill-rule="evenodd" clip-rule="evenodd" d="M156.644 154.733C154.028 157.557 149.598 157.683 146.814 155.07L138.797 147.611C135.971 144.998 135.844 140.573 138.46 137.791C141.076 134.967 145.506 134.841 148.29 137.454L156.306 144.914C159.091 147.527 159.259 151.952 156.644 154.733Z" fill="#F49000"/><path fill-rule="evenodd" clip-rule="evenodd" d="M156.644 108.29C154.028 105.466 149.598 105.34 146.814 107.953L138.797 115.412C135.971 118.025 135.844 122.451 138.46 125.232C141.076 128.056 145.506 128.182 148.29 125.569L156.306 118.11C159.091 115.497 159.259 111.071 156.644 108.29Z" fill="#F49000"/><path d="M4.59244 127.508H33.8298V122.661L47.2039 136.569C47.2883 136.653 47.4149 136.78 47.4993 136.864C55.5153 145.209 55.3043 158.442 46.993 166.492C38.6816 174.541 25.5607 174.204 17.5868 165.902C17.2915 165.564 16.9962 165.269 16.7009 164.932C7.41914 154.438 3.28456 140.783 4.59244 127.508Z" fill="#4EC602"/><path fill-rule="evenodd" clip-rule="evenodd" d="M0.921875 128.772C0.921875 125.738 3.36887 123.293 6.40652 123.293H15.4773C18.5149 123.293 20.9619 125.738 20.9619 128.772C20.9619 131.806 18.5149 134.251 15.4773 134.251H6.40652C3.36887 134.251 0.921875 131.806 0.921875 128.772Z" fill="#4EC602"/><path fill-rule="evenodd" clip-rule="evenodd" d="M46.4023 164.764L65.2188 172.35H119.432C127.617 167.124 134.283 159.411 138.207 149.76C148.206 125.063 136.266 96.9106 111.501 86.9223L82.5588 75.2482C57.8357 65.2599 29.653 77.1869 19.6541 101.926C9.65516 126.665 21.637 154.817 46.4023 164.764Z" fill="#58CC02"/><path fill-rule="evenodd" clip-rule="evenodd" d="M99.1814 60.7083C76.9897 67.2829 62.6452 70.5702 56.0636 70.5702C52.3088 70.5702 48.3851 68.9687 44.2928 65.7657C36.4455 59.6126 25.0543 60.9612 18.8946 68.8001C16.4054 72.0031 15.0132 75.9225 15.0132 79.9684V118.868C15.0132 139.687 31.889 156.545 52.7307 156.545C58.2575 156.545 63.7 155.323 68.7205 153.005C93.0217 157.852 116.69 142.132 121.542 117.857C122.133 114.949 122.428 111.998 122.428 109.048V78.0298C122.428 68.0415 114.327 59.9497 104.329 59.9497C102.599 59.9497 100.869 60.2026 99.1814 60.7083Z" fill="#58CC02"/><path d="M80.7868 163.794C83.951 162.109 85.6386 158.695 85.0901 155.408C84.9635 154.733 84.2041 154.354 83.5713 154.691L71.6738 161.013C71.041 161.35 70.9144 162.193 71.4207 162.656C73.8255 164.974 77.6225 165.438 80.7868 163.794Z" fill="#89E219"/><path d="M83.4869 167.967C83.3603 167.292 82.6009 166.955 81.968 167.292L72.391 172.392H82.854C83.4447 171.001 83.6978 169.484 83.4869 167.967Z" fill="#89E219"/><path d="M67.0329 164.174C66.9064 163.499 66.147 163.162 65.5141 163.499L55.8949 168.599L63.7843 171.802C66.1891 169.989 67.4548 167.039 67.0329 164.174Z" fill="#89E219"/><path fill-rule="evenodd" clip-rule="evenodd" d="M60.831 86.796C56.1902 91.8112 48.6804 91.0105 44.799 86.7539C38.8081 80.3057 37.7533 89.999 41.677 115.749H64.2062C65.05 93.0756 63.9109 83.4244 60.831 86.796Z" fill="#89E219"/><path fill-rule="evenodd" clip-rule="evenodd" d="M79.1835 79.3787H77.7069C66.611 79.3787 57.6246 88.3555 57.6246 99.4395V111.619C57.6246 122.703 66.611 131.68 77.7069 131.68H79.1413C90.2372 131.68 99.2236 122.703 99.2236 111.619V99.4395C99.2657 88.3555 90.2794 79.3787 79.1835 79.3787Z" fill="#89E219"/><path d="M75.2178 71.2025L58.9326 88.8612C58.0888 89.7884 58.3841 91.3056 59.5654 91.8113C65.1766 94.2979 71.8426 92.9071 76.0615 88.229C80.2805 83.5509 80.9555 76.8078 77.9179 71.4976C77.2429 70.4018 76.0615 70.2332 75.2178 71.2025Z" fill="#89E219"/><path d="M83.3181 75.375L67.3704 93.0336C66.5266 93.9608 66.822 95.478 68.0033 95.9837C73.6145 98.4702 80.2804 97.0795 84.4994 92.4014C88.7184 87.7234 89.3934 80.9802 86.3557 75.67C85.6807 74.6164 84.1619 74.4478 83.3181 75.375Z" fill="#89E219"/><path d="M30.9608 71.8346L44.2084 86.1217C44.8834 86.8803 44.4615 88.2711 43.3646 88.8189C38.0487 91.5584 32.0578 90.9262 28.6404 87.1332C25.2231 83.3401 25.2231 77.3556 28.4717 72.3404C29.1889 71.3289 30.2858 71.076 30.9608 71.8346Z" fill="#89E219"/><path d="M24.5059 76.007L37.4159 90.3362C38.0909 91.0948 37.669 92.4856 36.5721 93.0334C31.2562 95.7729 25.2653 95.1407 21.8479 91.3477C18.4306 87.5546 18.4306 81.5701 21.6792 76.5549C22.4386 75.5434 23.8309 75.2484 24.5059 76.007Z" fill="#89E219"/><path fill-rule="evenodd" clip-rule="evenodd" d="M30.7077 79.3787C21.9744 79.3787 14.8866 86.459 14.8866 95.1829V115.918C14.8866 124.642 21.9744 131.722 30.7077 131.722C39.4409 131.722 46.5288 124.642 46.5288 115.918V95.1829C46.5288 86.459 39.4409 79.3787 30.7077 79.3787Z" fill="#89E219"/><path fill-rule="evenodd" clip-rule="evenodd" d="M32.775 86.7959C26.2356 86.7959 20.9619 92.064 20.9619 98.5964V113.178C20.9619 119.711 26.2356 124.979 32.775 124.979C39.3144 124.979 44.5881 119.711 44.5881 113.178V98.5964C44.5881 92.1061 39.2722 86.7959 32.775 86.7959Z" fill="white"/><path fill-rule="evenodd" clip-rule="evenodd" d="M32.7328 95.0564C29.5686 95.0564 26.995 97.6272 26.995 100.788V111.071C26.995 114.232 29.5686 116.803 32.7328 116.803C35.897 116.803 38.4706 114.232 38.4706 111.071V100.788C38.4706 97.6272 35.897 95.0564 32.7328 95.0564Z" fill="#122431"/><path d="M27.5013 107.278C29.5983 107.278 31.2983 105.58 31.2983 103.485C31.2983 101.39 29.5983 99.6921 27.5013 99.6921C25.4042 99.6921 23.7042 101.39 23.7042 103.485C23.7042 105.58 25.4042 107.278 27.5013 107.278Z" fill="white"/><path d="M15.3929 123.293C11.6802 123.335 8.60038 120.427 8.55819 116.677C8.516 112.968 11.4693 109.891 15.182 109.849C15.4773 109.849 16.0257 109.849 16.7008 109.849C17.7977 109.891 18.979 109.933 20.2447 110.06C23.9152 110.397 27.6701 111.029 31.2984 112.125C35.0954 113.263 38.5128 114.738 41.5083 116.761C44.5881 118.826 45.4319 123.04 43.3646 126.117C41.2973 129.194 37.0783 130.036 33.9985 127.971C32.2265 126.791 30.0327 125.822 27.4591 125.063C24.759 124.263 21.8901 123.757 19.0212 123.504C18.0087 123.42 17.0805 123.335 16.2789 123.293C15.7726 123.293 15.4773 123.293 15.3929 123.293Z" fill="#89E219"/><path fill-rule="evenodd" clip-rule="evenodd" d="M19.2322 87.1331L40.7489 86.3745L49.2712 101.252C44.1662 100.619 39.3988 100.282 34.9689 100.282C30.539 100.282 25.4762 100.957 19.7385 102.263L19.2322 87.1331Z" fill="#89E219"/><path d="M16.9117 116.887C15.646 117.098 14.4647 116.213 14.2538 114.949C14.0428 113.684 14.9288 112.504 16.1945 112.293C18.6837 111.914 20.9197 112.209 22.776 113.263C23.873 113.895 24.2527 115.328 23.6198 116.424C22.987 117.519 21.5525 117.899 20.4556 117.267C19.5696 116.803 18.3883 116.634 16.9117 116.887Z" fill="#9AF300"/><path fill-rule="evenodd" clip-rule="evenodd" d="M51.929 113.179C47.7522 113.179 44.3771 116.55 44.3771 120.723V134.715C44.3771 138.887 47.7522 142.259 51.929 142.259C56.1058 142.259 59.481 138.887 59.481 134.715V120.723C59.481 116.55 56.1058 113.179 51.929 113.179Z" fill="#F49000"/><path fill-rule="evenodd" clip-rule="evenodd" d="M52.3509 114.443C48.6804 114.443 45.6849 117.435 45.6849 121.102V134.673C45.6849 137.286 47.7944 139.393 50.4102 139.393C53.1525 139.393 55.4729 137.412 55.8526 134.715L58.0043 121.018C58.5106 117.899 56.3589 114.991 53.2369 114.485C52.9415 114.485 52.6462 114.443 52.3509 114.443Z" fill="#CD7900"/><path fill-rule="evenodd" clip-rule="evenodd" d="M48.5961 137.412C48.5961 138.002 48.6383 138.55 48.7648 139.14C49.2711 139.351 49.8196 139.435 50.4102 139.435C53.1525 139.435 55.473 137.454 55.8527 134.757L56.9074 128.014C52.2244 128.562 48.5961 132.565 48.5961 137.412Z" fill="#FFCAFF"/><path d="M61.8436 119.753C60.9998 114.738 56.5699 111.029 51.3384 111.029C46.1069 111.029 41.677 114.78 40.8332 119.753L40.791 120.09L45.9803 121.86L61.928 120.09L61.8436 119.753Z" fill="#FFC200"/><path d="M52.9838 115.876C53.7854 116.129 54.6292 115.707 54.8824 114.907C55.1355 114.106 54.7136 113.263 53.912 113.01C52.0135 112.378 50.0305 112.378 48.132 113.01C47.3304 113.263 46.9085 114.106 47.1617 114.907C47.4148 115.707 48.2586 116.129 49.0602 115.876C50.4103 115.412 51.6759 115.412 52.9838 115.876Z" fill="#FFDE00"/><path fill-rule="evenodd" clip-rule="evenodd" d="M77.8335 86.3745C69.6487 86.3745 63.0671 92.9912 63.0671 101.125V110.228C63.0671 118.404 69.6909 124.979 77.8335 124.979C85.9761 124.979 92.5999 118.362 92.5999 110.228V101.125C92.5999 92.9912 86.0183 86.3745 77.8335 86.3745Z" fill="white"/><path fill-rule="evenodd" clip-rule="evenodd" d="M74.9647 95.0564C71.1255 95.0564 68.0457 98.1751 68.0457 101.968V109.807C68.0457 113.642 71.1677 116.719 74.9647 116.719C78.804 116.719 81.8838 113.6 81.8838 109.807V101.968C81.8838 98.1751 78.804 95.0564 74.9647 95.0564Z" fill="#122431"/><path d="M69.691 107.278C71.7881 107.278 73.4881 105.58 73.4881 103.485C73.4881 101.391 71.7881 99.6924 69.691 99.6924C67.5939 99.6924 65.8939 101.391 65.8939 103.485C65.8939 105.58 67.5939 107.278 69.691 107.278Z" fill="white"/><path d="M97.9158 123.799C101.629 124.094 104.877 121.355 105.172 117.604C105.468 113.895 102.725 110.65 98.9706 110.355C98.5909 110.313 97.958 110.271 97.1142 110.229C95.722 110.186 94.2031 110.144 92.5577 110.144C87.7903 110.144 83.0229 110.481 78.382 111.24C74.4162 111.872 70.7879 112.842 67.4971 114.148C67.244 114.232 65.7673 114.78 65.8517 114.78C65.5986 114.864 65.3876 114.949 65.1767 115.033C64.3329 115.37 63.6579 115.665 63.025 116.002C59.7342 117.772 58.5107 121.861 60.2827 125.148C62.0547 128.435 66.147 129.657 69.4378 127.887C69.48 127.845 69.7332 127.761 70.1129 127.592C70.2394 127.55 70.4082 127.466 70.6191 127.424C70.7457 127.381 70.8723 127.339 71.0832 127.255C71.1254 127.255 71.4629 127.129 71.5473 127.086C71.9692 126.918 72.2645 126.834 72.5177 126.707C74.7959 125.78 77.5382 125.106 80.6181 124.6C84.4573 123.968 88.5497 123.673 92.6421 123.673C94.0766 123.673 95.3844 123.715 96.5658 123.757C96.9876 123.757 97.3252 123.799 97.6205 123.799C97.7892 123.799 97.8736 123.799 97.9158 123.799Z" fill="#89E219"/><path fill-rule="evenodd" clip-rule="evenodd" d="M93.7813 86.9646L68.9316 85.2788L59.8608 101.083C65.0502 100.282 69.7754 100.029 74.0787 100.324C78.3821 100.619 84.5839 101.589 92.7265 103.317L93.7813 86.9646Z" fill="#89E219"/><path d="M90.4061 116.887C91.6718 117.098 92.8531 116.213 93.064 114.949C93.275 113.684 92.389 112.504 91.1233 112.293C88.6341 111.914 86.3981 112.209 84.5417 113.263C83.4448 113.895 83.0651 115.328 83.6979 116.424C84.3308 117.519 85.7652 117.899 86.8622 117.267C87.7481 116.803 88.9294 116.634 90.4061 116.887Z" fill="#9AF300"/><path fill-rule="evenodd" clip-rule="evenodd" d="M72.2224 119.922H88.6763L83.8245 126.665H72.2224V119.922Z" fill="#8EE000"/><path fill-rule="evenodd" clip-rule="evenodd" d="M84.9636 128.14C84.9636 125.106 87.4106 122.661 90.4483 122.661H117.028C120.065 122.661 122.512 125.106 122.512 128.14C122.512 131.174 120.065 133.619 117.028 133.619H90.4483C87.4106 133.619 84.9636 131.174 84.9636 128.14Z" fill="#4EC602"/><path d="M89.0138 124.558H118.926L121.036 148.959C121.036 149.086 121.078 149.254 121.078 149.381C122.09 160.886 113.61 171.296 102.093 172.308C90.5748 173.319 80.5337 164.553 79.5211 153.047C79.4789 152.584 79.4367 152.162 79.4367 151.741C79.0148 142.427 81.3353 133.282 85.6386 125.527C85.8495 125.105 89.0138 124.558 89.0138 124.558Z" fill="#4EC602"/><path fill-rule="evenodd" clip-rule="evenodd" d="M76.4413 10.7669C75.3865 8.8704 75.26 6.51029 76.3147 4.48735C78.0023 1.15792 82.2213 -0.148568 85.6808 1.62151C87.8325 2.71727 89.1825 4.69807 89.5201 6.8896C91.4608 5.87812 93.8656 5.83598 96.0173 6.8896C99.4768 8.65967 100.911 12.7899 99.2237 16.1193C98.2533 18.0158 96.4813 19.238 94.4984 19.6173L84.6261 22.2303C82.7697 22.736 80.8712 21.7667 80.154 19.9966L76.4413 10.7669Z" fill="#FF6A35"/><path fill-rule="evenodd" clip-rule="evenodd" d="M21.2995 43.9768C18.8103 43.0918 16.7852 41.0689 16.068 38.3716C14.8867 33.9464 17.629 29.3948 22.1855 28.1726C25.0122 27.414 27.8811 28.1304 29.9062 29.8162C30.8344 27.3297 32.9438 25.3067 35.7705 24.5481C40.327 23.3259 45.0101 25.9389 46.1914 30.322C46.8664 32.8506 46.2757 35.3793 44.7991 37.3601L37.6691 48.3177C36.6143 49.9192 34.547 50.5093 32.8173 49.6664L21.2995 43.9768Z" fill="#FF6A35"/><path fill-rule="evenodd" clip-rule="evenodd" d="M85.5543 55.3559C86.5669 54.9345 87.3263 54.0916 87.5372 52.9537C87.9169 51.1415 86.7356 49.3292 84.8371 48.9499C83.698 48.6971 82.5167 49.0342 81.7573 49.7928C81.3354 48.7814 80.4072 48.0227 79.2681 47.7699C77.4117 47.3906 75.5554 48.5285 75.1757 50.3407C74.9647 51.3943 75.2601 52.4058 75.8929 53.1644L78.6352 56.9153C79.3103 57.8425 80.576 58.1375 81.5885 57.5475L85.5543 55.3559Z" fill="#FFAB8D"/></g><defs><clipPath id="clip0"><rect width="158" height="180" fill="white" transform="translate(0.5 0.820801)"/></clipPath></defs></svg>