<svg viewBox="0 0 156 157" fill="none" xmlns="http://www.w3.org/2000/svg"><g clip-path="url(#clip0)"><path opacity="0.3" fill-rule="evenodd" clip-rule="evenodd" d="M5.49881 146.826H150.503C153.251 146.826 155.576 149.139 155.576 151.872C155.576 154.605 153.251 156.918 150.503 156.918H5.49881C2.75092 156.918 0.425781 154.605 0.425781 151.872C0.425781 149.139 2.75092 146.826 5.49881 146.826Z" fill="#AFAFAF"/><path fill-rule="evenodd" clip-rule="evenodd" d="M14.1668 133.159H50.1007C53.9055 133.159 57.0761 136.313 57.0761 140.098C57.0761 143.882 53.9055 147.036 50.1007 147.036H14.1668C10.362 147.036 7.19141 143.882 7.19141 140.098C7.19141 136.313 10.362 133.159 14.1668 133.159Z" fill="#58CC02"/><path fill-rule="evenodd" clip-rule="evenodd" d="M106.327 133.159H142.261C146.066 133.159 149.236 136.313 149.236 140.098C149.236 143.882 146.066 147.036 142.261 147.036H106.327C102.522 147.036 99.3516 143.882 99.3516 140.098C99.3516 136.313 102.311 133.159 106.327 133.159Z" fill="#58CC02"/><path fill-rule="evenodd" clip-rule="evenodd" d="M142.047 146.826V22.3546C142.047 19.4111 141.413 16.4675 140.356 13.7342C135.494 2.80085 122.812 -2.24528 111.609 2.5906C95.5443 9.52904 84.3413 13.1034 78.2114 13.1034C72.0815 13.1034 60.6672 9.52904 44.3913 2.5906C41.6434 1.32906 38.6841 0.908553 35.7249 0.908553C23.6764 0.908553 13.9531 10.5803 13.9531 22.5649V147.247H142.047V146.826Z" fill="#58CC02"/><path d="M100.194 108.77H84.1293C83.2838 108.77 82.6496 109.611 82.861 110.452C84.1293 114.236 87.9341 116.759 92.1616 116.759C96.3891 116.759 100.194 114.236 101.462 110.452C101.673 109.611 101.039 108.77 100.194 108.77ZM73.3491 110.452C73.5605 109.611 72.9263 108.77 72.0808 108.77H56.0163C55.1707 108.77 54.5366 109.611 54.748 110.452C56.0163 114.236 59.821 116.759 64.0485 116.759C68.2761 116.759 72.0808 114.236 73.3491 110.452ZM86.243 122.436H69.9671C69.1216 122.436 68.4874 123.277 68.6988 124.118C69.9671 127.903 73.7718 130.426 77.9994 130.426C82.2269 130.426 86.0317 127.903 87.2999 124.118C87.7227 123.277 87.0885 122.436 86.243 122.436Z" fill="#89E219"/><path fill-rule="evenodd" clip-rule="evenodd" d="M24.5201 122.647C27.9022 119.493 33.1866 119.703 36.1458 123.067L45.4464 132.949C48.617 136.313 48.4056 141.57 45.0236 144.513C41.6416 147.667 36.3572 147.457 33.3979 144.093L24.0974 134.211C21.1381 131.057 21.3495 125.801 24.5201 122.647Z" fill="#F49000"/><path fill-rule="evenodd" clip-rule="evenodd" d="M131.475 122.647C128.093 119.493 122.808 119.703 119.849 123.067L110.548 132.949C107.378 136.313 107.589 141.57 110.971 144.513C114.353 147.667 119.638 147.457 122.597 144.093L131.897 134.211C135.068 131.057 134.857 125.801 131.475 122.647Z" fill="#F49000"/><path d="M49.8873 13.9444L69.1225 34.7597C70.1794 35.811 69.7566 37.7033 68.277 38.3341C61.513 41.2777 53.6921 39.8059 48.619 34.3392C43.546 28.8726 42.9119 20.8828 46.5053 14.5752C47.5622 12.8931 48.8304 12.6829 49.8873 13.9444Z" fill="#89E219"/><path fill-rule="evenodd" clip-rule="evenodd" d="M65.7422 30.9751C72.0835 38.1238 83.9205 38.1238 90.2618 30.9751C90.2618 47.7956 90.2618 72.816 90.2618 72.6057C90.2618 72.6057 82.0182 72.6057 65.7422 72.6057C65.7422 60.4109 65.7422 46.534 65.7422 30.9751Z" fill="#89E219"/><path d="M40.1655 18.9906L58.978 39.8059C60.0349 40.8572 59.6121 42.7495 58.1325 43.3802C51.3684 46.3238 43.5475 44.852 38.4745 39.3854C33.4015 33.9187 32.7674 25.929 36.3608 19.6213C37.4176 17.9393 39.32 17.729 40.1655 18.9906Z" fill="#89E219"/><path fill-rule="evenodd" clip-rule="evenodd" d="M46.718 23.4059H48.1976C61.5143 23.4059 72.2945 34.129 72.2945 47.3751V63.3545C72.2945 76.6006 61.5143 87.3237 48.1976 87.3237H46.718C33.4013 87.3237 22.6211 76.6006 22.6211 63.3545V47.3751C22.6211 34.129 33.4013 23.4059 46.718 23.4059Z" fill="#89E219"/><path d="M105.903 13.9444L87.091 34.7597C86.0341 35.811 86.4569 37.7033 87.9365 38.3341C94.7005 41.2777 102.521 39.8059 107.594 34.3392C112.668 28.8726 113.302 20.8828 109.708 14.5752C108.863 12.8931 106.96 12.6829 105.903 13.9444Z" fill="#89E219"/><path d="M115.415 18.9906L96.6027 39.8059C95.5458 40.8572 95.9686 42.7495 97.4482 43.3802C104.212 46.3238 112.033 44.852 117.106 39.3854C122.179 33.9187 122.813 25.929 119.22 19.6213C118.374 17.9393 116.472 17.729 115.415 18.9906Z" fill="#89E219"/><path fill-rule="evenodd" clip-rule="evenodd" d="M108.441 22.7751H109.92C123.237 22.7751 134.017 33.4982 134.017 46.7443V62.7237C134.017 75.9698 123.237 86.6929 109.92 86.6929H108.652C95.3353 86.6929 84.5551 75.9698 84.5551 62.934L84.3438 46.9546C84.3438 33.7084 94.9125 22.9854 108.441 22.7751Z" fill="#89E219"/><path fill-rule="evenodd" clip-rule="evenodd" d="M108.923 32.0033C118.646 32.0033 126.467 39.7828 126.467 49.4545V61.0186C126.467 70.6903 118.646 78.4698 108.923 78.4698C99.1998 78.4698 91.3789 70.6903 91.3789 61.0186V49.4545C91.3789 39.7828 99.1998 32.0033 108.923 32.0033Z" fill="white"/><path fill-rule="evenodd" clip-rule="evenodd" d="M108.925 36.4186C116.957 36.4186 123.51 42.9366 123.51 50.9263V60.3878C123.51 68.3775 116.957 74.8954 108.925 74.8954C100.892 74.8954 94.3398 68.3775 94.3398 60.3878V50.9263C94.3398 42.9366 100.892 36.4186 108.925 36.4186Z" fill="#4B4B4B"/><path d="M102.159 57.8647C107.062 57.8647 111.037 53.9111 111.037 49.034C111.037 44.1569 107.062 40.2032 102.159 40.2032C97.256 40.2032 93.2812 44.1569 93.2812 49.034C93.2812 53.9111 97.256 57.8647 102.159 57.8647Z" fill="white"/><path fill-rule="evenodd" clip-rule="evenodd" d="M126.466 58.2853C125.409 56.6032 123.506 55.3417 121.181 55.3417C117.799 55.3417 114.84 58.2853 114.84 61.6493C114.84 65.0134 117.588 67.957 121.181 67.957C122.872 67.957 124.563 67.116 125.62 66.0647C126.043 64.3827 126.466 62.7006 126.466 60.8083V58.2853Z" fill="white"/><path opacity="0.7238" fill-rule="evenodd" clip-rule="evenodd" d="M125.875 65.5574C123.877 73.0128 117.068 78.4698 108.924 78.4698C100.587 78.4698 93.6487 72.7502 91.8398 65.0224C93.252 64.0064 95.1015 63.5416 97.3015 63.5416C99.2039 63.5416 100.683 64.1724 102.797 65.2237C105.334 66.4852 108.716 67.957 112.521 67.7467C117.805 67.7467 120.553 66.9057 121.821 66.0647C123.081 65.3126 124.567 65.1583 125.875 65.5574Z" fill="#34A9FF"/><path fill-rule="evenodd" clip-rule="evenodd" d="M46.1614 32.0033C55.8847 32.0033 63.7056 39.7828 63.7056 49.4545V61.0186C63.7056 70.6903 55.8847 78.4698 46.1614 78.4698C36.4381 78.4698 28.6172 70.6903 28.6172 61.0186V49.4545C28.6172 39.7828 36.4381 32.0033 46.1614 32.0033Z" fill="white"/><path fill-rule="evenodd" clip-rule="evenodd" d="M46.1592 36.4186C54.1915 36.4186 60.7441 42.9366 60.7441 50.9263V60.3878C60.7441 68.3775 54.1915 74.8954 46.1592 74.8954C38.1269 74.8954 31.5742 68.3775 31.5742 60.3878V50.9263C31.5742 42.9366 38.1269 36.4186 46.1592 36.4186Z" fill="#4B4B4B"/><path d="M39.3973 57.8647C44.3004 57.8647 48.2751 53.9111 48.2751 49.034C48.2751 44.1569 44.3004 40.2032 39.3973 40.2032C34.4943 40.2032 30.5195 44.1569 30.5195 49.034C30.5195 53.9111 34.4943 57.8647 39.3973 57.8647Z" fill="white"/><path fill-rule="evenodd" clip-rule="evenodd" d="M63.7038 58.2853C62.6469 56.6032 60.7445 55.3417 58.4194 55.3417C55.0374 55.3417 52.0781 58.2853 52.0781 61.6493C52.0781 65.0134 54.826 67.957 58.4194 67.957C60.1104 67.957 61.8014 67.116 62.8583 66.0647C63.2811 64.3827 63.7038 62.7006 63.7038 60.8083V58.2853Z" fill="white"/><path opacity="0.7238" fill-rule="evenodd" clip-rule="evenodd" d="M63.2857 64.8501C61.5404 72.6651 54.5608 78.4698 46.1618 78.4698C38.1796 78.4698 31.4796 73.2271 29.3359 65.9986C30.7811 65.3348 32.4423 65.4039 33.902 66.275C35.1702 67.116 37.9181 67.9571 43.2025 67.9571C46.9051 67.9571 49.889 66.7061 52.3199 65.687C52.5258 65.6007 52.7278 65.5161 52.9258 65.434C53.367 65.2585 53.7805 65.0829 54.176 64.9151C55.6756 64.2785 56.9163 63.752 58.4216 63.752C60.3237 63.752 61.9637 64.0994 63.2857 64.8501Z" fill="#34A9FF"/><path d="M83.9217 87.7442C83.2876 87.7442 82.6535 87.5339 82.2307 87.1134L78.426 82.9083L74.6212 86.9032C73.7757 87.7442 72.296 87.7442 71.4505 86.9032C70.605 86.0622 70.605 84.5904 71.4505 83.7493L75.8894 79.1237C76.5236 78.4929 77.5804 78.0724 78.6373 77.8622C79.6942 77.8622 80.5397 78.2827 81.3852 78.9135L85.8241 83.5391C86.6696 84.3801 86.6696 85.8519 85.8241 86.6929C84.9786 87.5339 84.3445 87.7442 83.9217 87.7442Z" fill="#43C000"/><path d="M65.7422 66.2981C66.7991 60.8315 71.6607 56.4161 78.2134 56.4161C84.1319 56.4161 89.4163 60.6212 90.4732 66.2981V67.5596C90.4732 68.6109 89.6277 69.6622 88.3594 69.6622C87.9367 69.6622 87.7253 69.6622 87.3025 69.4519C84.1319 67.7699 80.9613 66.7186 77.7906 66.7186C74.62 66.7186 71.6607 67.5596 68.7015 69.2417C67.6446 69.8724 66.5877 69.4519 65.9536 68.4007C65.9536 68.1904 65.7422 67.7699 65.7422 67.5596V66.2981Z" fill="#FFC200"/><path d="M80.3292 61.6724C80.1178 61.6724 79.9064 61.6724 79.695 61.4621C78.2154 61.0416 76.9471 60.8314 75.4675 61.4621C74.622 61.8827 73.5651 61.2519 73.1424 60.4109C72.7196 59.5698 73.3538 58.5186 74.1993 58.0981C76.5244 57.257 78.6381 57.257 80.9633 58.0981C81.8088 58.5186 82.4429 59.5698 82.0202 60.4109C81.8088 61.2519 81.1747 61.6724 80.3292 61.6724Z" fill="#FFDE00"/><path d="M73.35 74.7083C71.8704 74.7083 70.3908 73.8673 69.5453 72.6058C68.277 70.5032 68.9111 67.7699 71.0249 66.2981C75.8865 63.3545 80.9596 63.3545 85.6098 66.5084C87.7236 67.9802 88.1463 70.7135 86.8781 72.816C85.3985 74.9186 82.6506 75.3391 80.5368 74.0776C79.2686 73.2366 78.0003 72.816 75.8865 74.2878C75.041 74.4981 74.1955 74.7083 73.35 74.7083Z" fill="#F49000"/></g><defs><clipPath id="clip0"><rect width="155.15" height="156.22" fill="white" transform="translate(0.425781 0.698303)"/></clipPath></defs></svg>