<svg viewBox="0 0 239 214" fill="none" xmlns="http://www.w3.org/2000/svg"><rect opacity="0.3" x="109" y="204" width="65" height="10" rx="5" fill="#AFAFAF"/><path d="M127.356 56.9773L218.696 62.1118C223.592 62.387 226.778 67.3411 224.989 71.8957C216.391 93.7788 194.339 107.984 170.207 106.628C146.076 105.271 125.866 88.6901 119.938 65.9905C118.704 61.266 122.46 56.7021 127.356 56.9773Z" fill="#58CC02"/><path d="M88.4592 60.9005L29.8119 131.113C26.6684 134.876 28.1096 140.588 32.6582 142.392C54.5124 151.063 79.9513 144.662 95.4458 126.112C110.94 107.562 112.637 81.4766 100.109 61.6403C97.5016 57.5117 91.6027 57.1371 88.4592 60.9005Z" fill="#58CC02"/><path d="M127.167 83.797L188.544 15.958C191.834 12.3218 197.69 12.955 200.11 17.2085C211.734 37.6451 208.933 63.7267 192.717 81.6496C176.501 99.5726 150.905 104.879 129.519 95.2309C125.068 93.2228 123.877 87.4332 127.167 83.797Z" fill="#58CC02"/><path d="M102.95 79.3272L11.9391 70.0391C7.06085 69.5412 3.13527 73.9328 4.18641 78.7121C9.23675 101.675 28.7816 119.17 52.8265 121.624C76.8715 124.078 99.436 110.88 108.859 89.3945C110.82 84.9226 107.828 79.8251 102.95 79.3272Z" fill="#58CC02"/><path d="M52.8321 65.4187C51.9829 63.622 51.0172 61.8676 50.4652 59.9585C46.5269 46.3372 59.0143 28.5909 72.1082 30.0706C85.0821 31.5367 94.7126 31.9925 101.265 30.0706C107.818 28.1486 118.878 20.0779 129.005 11.8361C138.043 4.48 148.804 7.73471 156.43 15.7178C159.565 18.9988 161.924 22.9213 164.213 26.8392C168.864 34.7993 177.116 50.6329 183.394 72.038C192.641 103.564 173.616 144.37 137.867 154.856C99.257 166.181 81.2569 137.226 69.9202 106.908C61.44 84.2286 55.3585 70.7642 52.8321 65.4187Z" fill="#58CC02"/><path d="M120.269 108.796L134.635 104.576C135.405 104.35 136.16 104.903 136.125 105.668C135.962 109.344 133.314 112.627 129.519 113.742C125.723 114.857 121.724 113.526 119.604 110.521C119.162 109.895 119.499 109.022 120.269 108.796Z" fill="#8EE000"/><path d="M136.871 118.133L151.236 113.914C152.006 113.688 152.761 114.241 152.727 115.006C152.563 118.682 149.915 121.965 146.12 123.08C142.325 124.195 138.326 122.864 136.205 119.859C135.764 119.233 136.101 118.36 136.871 118.133Z" fill="#8EE000"/><path d="M145.344 101.442L159.709 97.2224C160.479 96.9962 161.234 97.5491 161.2 98.3142C161.036 101.99 158.388 105.273 154.593 106.388C150.798 107.503 146.799 106.172 144.678 103.167C144.236 102.541 144.574 101.668 145.344 101.442Z" fill="#8EE000"/><path fill-rule="evenodd" clip-rule="evenodd" d="M111.822 38.6827C120.074 43.8005 128.145 39.1366 130.566 30.0201C132.714 21.9334 141.157 63.4886 141.119 63.3788C141.1 63.3263 141.183 64.7136 133.861 67.3361C131.898 68.0391 128.363 69.3099 123.257 71.1486C108.264 44.4956 106.44 35.3449 111.822 38.6827Z" fill="#89E219"/><circle cx="110.797" cy="80.1774" r="15.9095" transform="rotate(-19.5307 110.797 80.1774)" fill="#89E219"/><path d="M134.524 15.3064L127.482 40.7261C127.104 42.0886 128.162 43.4253 129.571 43.366C136.34 43.0809 142.257 38.3992 144.117 31.6834C145.978 24.9675 143.32 17.888 137.671 14.1306C136.495 13.3485 134.902 13.9439 134.524 15.3064Z" fill="#8EE000"/><path d="M145.802 14.9257L138.759 40.3454C138.382 41.7079 139.44 43.0446 140.849 42.9853C147.617 42.7002 153.534 38.0185 155.395 31.3027C157.255 24.5868 154.597 17.5073 148.948 13.7498C147.772 12.9678 146.179 13.5632 145.802 14.9257Z" fill="#8EE000"/><path d="M95.4364 29.61L117.957 42C119.164 42.6641 119.37 44.3063 118.364 45.2431C113.529 49.7443 106.216 50.6666 100.267 47.3931C94.3165 44.1197 91.2088 37.4648 92.4625 30.9932C92.7234 29.6463 94.2293 28.9459 95.4364 29.61Z" fill="#89E219"/><path d="M88.1863 37.1806L109.372 48.8362C110.508 49.461 110.702 51.0058 109.755 51.8871C105.206 56.1214 98.3275 56.9891 92.7302 53.9097C87.1329 50.8303 84.2094 44.5698 85.3887 38.4818C85.6342 37.2147 87.0508 36.5559 88.1863 37.1806Z" fill="#89E219"/><path d="M75.2437 72.086C70.8375 59.6645 77.3352 46.023 89.7567 41.6168C102.178 37.2106 115.82 43.7083 120.226 56.1298L123.611 65.6717C128.017 78.0932 121.519 91.7347 109.098 96.1409C96.6762 100.547 83.0346 94.0494 78.6285 81.6279L75.2437 72.086Z" fill="#89E219"/><path d="M132.066 46.0583C128.681 36.5172 133.672 26.0389 143.213 22.6544C152.754 19.27 163.233 24.2609 166.617 33.8021L173.323 52.7061C176.707 62.2472 171.716 72.7255 162.175 76.11C152.634 79.4944 142.156 74.5034 138.771 64.9623L132.066 46.0583Z" fill="#89E219"/><circle cx="157.604" cy="58.2215" r="20.5786" transform="rotate(-3.18361 157.604 58.2215)" fill="#89E219"/><rect x="120.699" y="61.4229" width="16.2553" height="19.0222" rx="8.12767" transform="rotate(-19.5307 120.699 61.4229)" fill="#F49000"/><path d="M142.412 63.2904C142.622 63.6054 142.513 64.0263 142.19 64.2219L138.594 66.3933C138.594 66.3933 133.118 64.9297 129.609 65.7648C126.989 66.3882 123.273 68.8144 121.558 70.0044C121.13 70.3014 120.532 70.0477 120.504 69.5273C120.231 64.505 123.385 60.4716 128.49 58.6608C133.753 56.7938 139.454 58.8421 142.412 63.2904Z" fill="#FFC200"/><path d="M130.252 60.8266C131.051 60.5582 133.191 60.4982 134.733 61.2025" stroke="#FFDE00" stroke-width="3.45858" stroke-linecap="round" stroke-linejoin="round"/><path d="M204.056 25.7321C211.619 44.9532 218.755 52.0171 225.153 68.2724L196.069 85.703L172.929 44.4084C183.983 28.2886 195.756 4.63471 204.056 25.7321Z" fill="url(#paint0_linear)"/><path d="M190.456 120.949C189.58 126.222 188.702 129.033 185.492 133.534" stroke="#F49000" stroke-width="14.8719" stroke-linecap="round"/><path d="M81.0959 154.796C84.7504 158.697 87.0405 160.548 92.2081 162.512" stroke="#F49000" stroke-width="14.8719" stroke-linecap="round"/><path d="M83.2969 74.1968C83.2969 74.1968 90.8309 68.0209 101.961 66.292C113.091 64.5631 119.336 68.2021 119.336 68.2021L120.087 70.3208C123.408 79.6819 118.511 89.9625 109.15 93.2831C99.7887 96.6037 89.5081 91.7069 86.1875 82.3458L83.2969 74.1968Z" fill="#89E219"/><path fill-rule="evenodd" clip-rule="evenodd" d="M78.429 75.9967C79.8007 89.4699 91.5469 99.6106 105.208 98.8508C119.267 98.0688 130.03 86.0377 129.248 71.9787C128.806 64.0221 124.76 57.1212 118.783 52.7711L78.429 75.9967Z" fill="#89E219"/><path d="M106.475 64.1374C103.866 63.6354 100.748 63.6357 97.5642 65.8455" stroke="#93F21A" stroke-width="5.53373" stroke-linecap="round"/><path d="M155.133 43.6732C152.143 44.15 149.601 45.5039 147.307 48.2647" stroke="#93F21A" stroke-width="5.53373" stroke-linecap="round"/><path d="M122.362 57.2495C114.874 54.6807 109.775 54.27 100.395 54.8502" stroke="#43C000" stroke-width="3.80444" stroke-linecap="round"/><path d="M122.261 57.1866C116.635 53.4886 112.635 52.2224 105.109 51.1423" stroke="#43C000" stroke-width="3.80444" stroke-linecap="round"/><path d="M135.512 52.1525C139.053 45.0722 142.403 41.2056 149.5 35.0453" stroke="#43C000" stroke-width="3.80444" stroke-linecap="round"/><path d="M135.541 52.0357C136.962 45.4548 138.928 41.7485 143.539 35.7036" stroke="#43C000" stroke-width="3.80444" stroke-linecap="round"/><path d="M29.917 139C16.9127 122.953 7.14798 90.7531 3.80469 76.9188H22.1352L61.2171 101.821C56.2598 120.728 42.9212 155.048 29.917 139Z" fill="url(#paint1_linear)"/><path d="M201.983 4.28889C210.029 8.35039 207.689 17.9502 204.057 12.9352C200.426 7.92016 199.392 7.22844 194.027 7.22844C188.663 7.22844 194.807 0.667207 201.983 4.28889Z" fill="#C4C4C4"/><path d="M35.8644 162.22C29.8489 161.443 28.1249 158.301 31.4857 158.663C34.8465 159.024 34.849 159.287 40.7395 159.194C46.63 159.101 41.2287 162.913 35.8644 162.22Z" fill="#C4C4C4"/><path d="M29.0508 148.857C30.6438 150.231 35.5026 153.054 42.1934 153.353" stroke="#C4C4C4" stroke-width="4.1503" stroke-linecap="round"/><defs><linearGradient id="paint0_linear" x1="200.943" y1="89.0239" x2="190.183" y2="18.1792" gradientUnits="userSpaceOnUse"><stop stop-color="#58CC02" stop-opacity="0"/><stop offset="1" stop-color="#58CC02"/></linearGradient><linearGradient id="paint1_linear" x1="32.5109" y1="98.362" x2="50.4955" y2="138.482" gradientUnits="userSpaceOnUse"><stop stop-color="#58CC02"/><stop offset="1" stop-color="#58CC02" stop-opacity="0"/></linearGradient></defs></svg>